<svg xmlns="http://www.w3.org/2000/svg" viewBox="0 0 70 70" id="Love-It-Hand-Give--Streamline-Freehand.svg" height="70" width="70"><desc>Love It Hand Give Streamline Icon: https://streamlinehq.com</desc><g><path d="M60.25833333333333 1.3708333333333331a11.666666666666666 11.666666666666666 0 0 0 -13.299999999999999 8.020833333333332C44.65416666666667 1.4291666666666665 38.87916666666666 -0.9041666666666666 33.65833333333333 0.2916666666666667A14.291666666666668 14.291666666666668 0 0 0 23.041666666666668 13.854166666666666a23.537499999999998 23.537499999999998 0 0 0 5.6875 13.999999999999998 74.95833333333333 74.95833333333333 0 0 0 16.42083333333333 15.370833333333332 1.925 1.925 0 0 0 1.5166666666666666 -0.14583333333333334 19.775 19.775 0 0 0 1.8083333333333331 -1.2249999999999999 106.69166666666666 106.69166666666666 0 0 0 14.175 -13.066666666666666C66.70416666666667 24.208333333333336 69.76666666666667 19.366666666666664 70 15.866666666666667c0 -9.041666666666666 -4.579166666666667 -13.591666666666667 -9.741666666666665 -14.495833333333332Zm2.245833333333333 22.72083333333333a103.5125 103.5125 0 0 1 -15.837499999999999 14.874999999999998c-0.3208333333333333 0.23333333333333334 -0.6708333333333333 0.5541666666666667 -0.9333333333333333 0.7875a80.20833333333333 80.20833333333333 0 0 1 -14.583333333333332 -13.795833333333334 20.708333333333332 20.708333333333332 0 0 1 -5.308333333333334 -12.045833333333333A11.666666666666666 11.666666666666666 0 0 1 34.2125 2.595833333333333c4.345833333333333 -1.0791666666666666 9.0125 1.0499999999999998 10.966666666666665 7.816666666666666a0.9333333333333333 0.9333333333333333 0 0 0 1.1958333333333333 0.7v0.175a0.8749999999999999 0.8749999999999999 0 0 0 0.7291666666666666 1.0208333333333333 0.8458333333333332 0.8458333333333332 0 0 0 1.1083333333333334 -0.6416666666666666 9.858333333333333 9.858333333333333 0 0 1 11.666666666666666 -7.991666666666667c4.1708333333333325 0.9041666666666666 7.641666666666667 4.841666666666666 7.2333333333333325 12.191666666666665a17.062499999999996 17.062499999999996 0 0 1 -4.608333333333333 8.225Z" fill="#da061c" fill-rule="evenodd" stroke-width="1"></path><path d="M37.916666666666664 47.22083333333333a5.25 5.25 0 0 0 -1.7208333333333332 0.3208333333333333c-2.275 0.7875 -5.074999999999999 3.558333333333333 -9.5375 4.520833333333333a33.39583333333333 33.39583333333333 0 0 1 -6.154166666666666 0.6708333333333333c-6.4750000000000005 0.26249999999999996 -5.25 -0.8458333333333332 -5.366666666666666 -3.558333333333333a21 21 0 0 0 -0.4666666666666667 -3.9958333333333336 8.1375 8.1375 0 0 0 -1.0791666666666666 -2.7125 6.854166666666667 6.854166666666667 0 0 0 -3.85 -2.7416666666666663 4.375 4.375 0 0 0 -3.383333333333333 0.2916666666666667 4.754166666666666 4.754166666666666 0 0 0 -1.4875 1.2541666666666667 10.149999999999999 10.149999999999999 0 0 0 -1.3125 2.158333333333333 10.616666666666667 10.616666666666667 0 0 0 -0.7291666666666666 1.6624999999999999c-0.2916666666666667 0.7875 -0.5249999999999999 1.6333333333333333 -0.7875 2.4499999999999997l-1.8666666666666667 5.6875a0.9041666666666666 0.9041666666666666 0 0 0 0.6416666666666666 1.0791666666666666 0.8749999999999999 0.8749999999999999 0 0 0 1.0499999999999998 -0.6416666666666666l2.1291666666666664 -5.541666666666666c0.26249999999999996 -0.7583333333333333 0.5249999999999999 -1.5458333333333334 0.8166666666666667 -2.3041666666666667s0.43749999999999994 -0.9625 0.6708333333333333 -1.4291666666666665a15.429166666666665 15.429166666666665 0 0 1 0.9333333333333333 -1.4583333333333333 2.9166666666666665 2.9166666666666665 0 0 1 1.0791666666666666 -0.9333333333333333 2.4499999999999997 2.4499999999999997 0 0 1 2.158333333333333 0A4.754166666666666 4.754166666666666 0 0 1 11.666666666666666 43.75a5.833333333333333 5.833333333333333 0 0 1 0.6708333333333333 1.9541666666666666 18.025 18.025 0 0 1 0.26249999999999996 3.4999999999999996 18.9 18.9 0 0 0 -0.2916666666666667 3.9958333333333336 2.3041666666666667 2.3041666666666667 0 0 0 1.4583333333333333 1.7499999999999998 23.770833333333332 23.770833333333332 0 0 0 6.941666666666666 0.9041666666666666A35.37916666666667 35.37916666666667 0 0 0 27.416666666666668 55.416666666666664a17.7625 17.7625 0 0 0 3.7624999999999997 -1.1958333333333333 51.975 51.975 0 0 0 4.579166666666667 -2.5374999999999996 5.1625 5.1625 0 0 1 2.245833333333333 -0.9625 4.608333333333333 4.608333333333333 0 0 1 3.470833333333333 1.6041666666666667 4.229166666666666 4.229166666666666 0 0 1 0.9625 3.645833333333333A9.333333333333334 9.333333333333334 0 0 1 38.73333333333333 61.25a23.566666666666666 23.566666666666666 0 0 1 -6.416666666666667 3.4999999999999996 57.69166666666667 57.69166666666667 0 0 1 -7.7 2.3333333333333335 21.7 21.7 0 0 1 -5.133333333333333 0.4666666666666667c-3.2083333333333335 0 -6.533333333333333 -0.23333333333333334 -9.829166666666666 -0.5541666666666667a58.1 58.1 0 0 1 -6.387499999999999 -0.9333333333333333 0.9625 0.9625 0 0 0 -1.1958333333333333 0.7291666666666666 0.9916666666666667 0.9916666666666667 0 0 0 0.7583333333333333 1.1958333333333333 62.3 62.3 0 0 0 6.591666666666666 1.1666666666666667c3.3249999999999997 0.4083333333333333 6.679166666666666 0.6416666666666666 9.916666666666666 0.8458333333333332a23.624999999999996 23.624999999999996 0 0 0 5.833333333333333 -0.3208333333333333 62.941666666666656 62.941666666666656 0 0 0 8.1375 -2.0999999999999996 24.908333333333328 24.908333333333328 0 0 0 8.75 -4.8999999999999995 11.9 11.9 0 0 0 3.7041666666666666 -6.154166666666666 7.5249999999999995 7.5249999999999995 0 0 0 -1.6624999999999999 -6.445833333333333 7.845833333333333 7.845833333333333 0 0 0 -6.183333333333334 -2.858333333333333Z" fill="#da061c" fill-rule="evenodd" stroke-width="1"></path></g></svg>