<svg xmlns="http://www.w3.org/2000/svg" fill="none" viewBox="0 0 70 70" id="Love-Heart-Hold--Streamline-Ultimate.svg" height="70" width="70"><desc>Love Heart Hold Streamline Icon: https://streamlinehq.com</desc><path fill="#ffdda1" d="M36.02375 54.38708333333333c-0.27270833333333333 0.26716666666666666 -0.6390416666666666 0.4167916666666666 -1.0208333333333333 0.4167916666666666s-0.7481249999999999 -0.14962499999999998 -1.0208333333333333 -0.4167916666666666l-1.9425000000000001 -1.9191666666666667 -13.708333333333334 -13.542083333333332 -6.559583333333333 -6.46625C9.797345833333333 35.357875 8.744166666666667 38.78466666666666 8.75 42.291666666666664v11.800833333333333c0 4.412916666666666 1.96 6.504166666666666 5.833333333333333 8.615833333333333v5.833333333333333h26.25v-5.833333333333333c3.745 -2.0416666666666665 5.699166666666666 -4.065833333333333 5.833333333333333 -8.187083333333332v-10.64l-10.642916666666666 10.505833333333332Z" stroke-width="1"></path><path fill="#da061c" d="M18.316666666666666 38.92583333333333 8.166666666666666 28.90125C-7.058333333333333 14.702916666666667 14.192499999999999 -8.152083333333334 29.166666666666664 5.815833333333333l5.833333333333333 5.4366666666666665 5.833333333333333 -5.4366666666666665c14.98 -13.967916666666666 36.23083333333334 8.887083333333333 21 23.085416666666667l-25.809583333333332 25.485833333333332c-0.27270833333333333 0.26716666666666666 -0.6390416666666666 0.4167916666666666 -1.0208333333333333 0.4167916666666666s-0.7481249999999999 -0.14962499999999998 -1.0208333333333333 -0.4167916666666666l-1.9425000000000001 -1.9191666666666667" stroke-width="1"></path><path fill="#d95461" d="m40.83333333333333 5.815833333333333 -5.833333333333333 5.4366666666666665 -5.833333333333333 -5.4366666666666665c-11.354583333333332 -10.590416666666666 -26.302500000000002 0 -26.25 11.905833333333332 9.2166375 6.984629166666666 20.521666666666665 10.6526 32.08333333333333 10.409583333333332 11.561666666666666 0.24301666666666666 22.866666666666664 -3.4249541666666663 32.08333333333333 -10.409583333333332 0.04666666666666666 -11.920416666666664 -14.90125 -22.49625 -26.25 -11.905833333333332Z" stroke-width="1"></path><path stroke="#30352c" stroke-linecap="round" stroke-linejoin="round" d="M11.771666666666665 32.45958333333333C9.797345833333333 35.357875 8.744166666666667 38.78466666666666 8.75 42.291666666666664v11.800833333333333c0 4.412916666666666 1.96 6.504166666666666 5.833333333333333 8.615833333333333v5.833333333333333" stroke-width="1"></path><path stroke="#30352c" stroke-linecap="round" stroke-linejoin="round" d="M46.666666666666664 51.041666666666664v3.4795833333333333c-0.12541666666666665 4.12125 -2.0795833333333333 6.142499999999999 -5.833333333333333 8.187083333333332v5.833333333333333" stroke-width="1"></path><path stroke="#30352c" stroke-linecap="round" stroke-linejoin="round" d="M18.316666666666666 38.92583333333333 8.166666666666666 28.90125C-7.058333333333333 14.702916666666667 14.192499999999999 -8.152083333333334 29.166666666666664 5.815833333333333l5.833333333333333 5.4366666666666665 5.833333333333333 -5.4366666666666665c14.98 -13.967916666666666 36.23083333333334 8.887083333333333 21 23.085416666666667l-25.809583333333332 25.485833333333332c-0.27270833333333333 0.26716666666666666 -0.6390416666666666 0.4167916666666666 -1.0208333333333333 0.4167916666666666s-0.7481249999999999 -0.14962499999999998 -1.0208333333333333 -0.4167916666666666l-1.9425000000000001 -1.9191666666666667" stroke-width="1"></path><path fill="#ffdda1" d="M32.03375 52.46791666666667c0.2916666666666667 -2.9166666666666665 1.40875 -8.134583333333333 -3.9025 -10.94625l3.470833333333333 -6.556666666666667c0.35466666666666663 -0.5777916666666666 0.5868333333333333 -1.2223749999999998 0.6825 -1.8935 0.09566666666666666 -0.671125 0.05279166666666667 -1.3547916666666666 -0.12629166666666666 -2.0087083333333333 -0.17879166666666665 -0.6539166666666667 -0.49 -1.264375 -0.9143749999999999 -1.7931666666666666 -0.4240833333333333 -0.5289666666666666 -0.9522916666666666 -0.9652708333333333 -1.5516666666666667 -1.2819916666666666 -0.5994624999999999 -0.31672083333333334 -1.2575208333333332 -0.5071208333333332 -1.9334874999999998 -0.5594458333333333 -0.6759666666666666 -0.05235416666666667 -1.3554916666666665 0.03450416666666666 -1.9965458333333332 0.25515 -0.6410833333333333 0.220675 -1.2301041666666666 0.5704708333333334 -1.7306333333333332 1.027775 -0.5005291666666667 0.4573041666666667 -0.9019791666666667 1.0123458333333333 -1.1795 1.6309708333333333L14.583333333333332 45.98125" stroke-width="1"></path><path stroke="#30352c" stroke-linecap="round" stroke-linejoin="round" d="M32.03375 52.46791666666667c0.2916666666666667 -2.9166666666666665 1.40875 -8.134583333333333 -3.9025 -10.94625l3.470833333333333 -6.556666666666667c0.35466666666666663 -0.5777916666666666 0.5868333333333333 -1.2223749999999998 0.6825 -1.8935 0.09566666666666666 -0.671125 0.05279166666666667 -1.3547916666666666 -0.12629166666666666 -2.0087083333333333 -0.17879166666666665 -0.6539166666666667 -0.49 -1.264375 -0.9143749999999999 -1.7931666666666666 -0.4240833333333333 -0.5289666666666666 -0.9522916666666666 -0.9652708333333333 -1.5516666666666667 -1.2819916666666666 -0.5994624999999999 -0.31672083333333334 -1.2575208333333332 -0.5071208333333332 -1.9334874999999998 -0.5594458333333333 -0.6759666666666666 -0.05235416666666667 -1.3554916666666665 0.03450416666666666 -1.9965458333333332 0.25515 -0.6410833333333333 0.220675 -1.2301041666666666 0.5704708333333334 -1.7306333333333332 1.027775 -0.5005291666666667 0.4573041666666667 -0.9019791666666667 1.0123458333333333 -1.1795 1.6309708333333333L14.583333333333332 45.98125" stroke-width="1"></path></svg>