<svg xmlns="http://www.w3.org/2000/svg" viewBox="0 0 200 200" id="Select-Cursor-Area-Shape-Heart--Streamline-Freehand.svg" height="200" width="200"><desc>Select Cursor Area Shape Heart Streamline Icon: https://streamlinehq.com</desc><g><path d="M198.66666666666669 133.33333333333334a37.91666666666667 37.91666666666667 0 0 0 -8.333333333333334 -6.083333333333334 681.3333333333334 681.3333333333334 0 0 0 -79.08333333333334 -39.666666666666664 2.666666666666667 2.666666666666667 0 0 0 -3.2500000000000004 2.166666666666667 2.7500000000000004 2.7500000000000004 0 0 0 2.2500000000000004 3.2500000000000004 694.4166666666667 694.4166666666667 0 0 1 75.58333333333334 41.66666666666667l1.5 1.166666666666667 -5.916666666666667 1.166666666666667c-11.333333333333336 2.166666666666667 -26.25 3.9166666666666665 -32 5.583333333333334a5 5 0 0 0 -2.9166666666666665 2.4166666666666665 39.25 39.25 0 0 0 -2 4.666666666666668A320.9166666666667 320.9166666666667 0 0 1 133.33333333333334 179.91666666666669a22.66666666666667 22.66666666666667 0 0 0 -0.9166666666666667 2.0833333333333335 6.166666666666667 6.166666666666667 0 0 1 -1.3333333333333335 -1.5833333333333335 156.08333333333334 156.08333333333334 0 0 1 -9.250000000000002 -27.250000000000004 423.41666666666674 423.41666666666674 0 0 1 -10.833333333333334 -54.083333333333336 2.5 2.5 0 0 0 -2.666666666666667 -2.2500000000000004 2.4166666666666665 2.4166666666666665 0 0 0 -2.2500000000000004 2.5833333333333335A447.58333333333337 447.58333333333337 0 0 0 116.66666666666667 164a106.08333333333334 106.08333333333334 0 0 0 7.500000000000001 22.000000000000004 10.833333333333334 10.833333333333334 0 0 0 6.666666666666668 6.083333333333334 6.333333333333334 6.333333333333334 0 0 0 5.25 -1.416666666666667A25.500000000000004 25.500000000000004 0 0 0 141.66666666666669 183.33333333333334a253.16666666666669 253.16666666666669 0 0 0 10.750000000000002 -28.166666666666668c3.2500000000000004 -9.166666666666668 -5.583333333333334 0 35.41666666666667 -10.5a25.666666666666668 25.666666666666668 0 0 0 10.416666666666668 -4.500000000000001 4.666666666666668 4.666666666666668 0 0 0 0.41666666666666674 -6.833333333333333Z" fill="#9b9912" fill-rule="evenodd" stroke-width="1"></path><path d="M91.66666666666667 150a2.333333333333334 2.333333333333334 0 0 0 -1.666666666666667 0c1.166666666666667 -2.7500000000000004 -8.750000000000002 -6.083333333333334 -9.416666666666666 -6.500000000000001 -2.7500000000000004 -1.25 -5.25 -2.666666666666667 -8.333333333333334 -3.833333333333334 -4.166666666666667 -1.8333333333333335 -8.333333333333334 -3.166666666666667 -12.5 -5.083333333333334a2.9166666666666665 2.9166666666666665 0 0 0 -3.833333333333334 0.9166666666666667 2.7500000000000004 2.7500000000000004 0 0 0 0.9166666666666667 3.833333333333334 98.83333333333333 98.83333333333333 0 0 0 11.250000000000002 8.333333333333334 87.33333333333334 87.33333333333334 0 0 0 8.333333333333334 4 102.41666666666667 102.41666666666667 0 0 0 11.75 3.333333333333334c2.4166666666666665 0 3.833333333333334 -0.6666666666666667 4.083333333333334 -1.5833333333333335A2.4166666666666665 2.4166666666666665 0 0 0 91.66666666666667 150Z" fill="#e0e17a" fill-rule="evenodd" stroke-width="1"></path><path d="M30.416666666666668 108.33333333333334c-0.75 -1.0833333333333335 -1.666666666666667 -2.166666666666667 -2.5 -3.2500000000000004L25 102.25c-2.333333333333334 -2.333333333333334 -4.666666666666668 -4.416666666666667 -6.833333333333333 -6.916666666666667a2.833333333333334 2.833333333333334 0 0 0 -4.75 3 81.25 81.25 0 0 0 4.666666666666668 9.333333333333336 22.416666666666668 22.416666666666668 0 0 0 2.5833333333333335 3.666666666666667 28.41666666666667 28.41666666666667 0 0 0 3.0833333333333335 3.2500000000000004 61.41666666666667 61.41666666666667 0 0 0 8.750000000000002 5.833333333333333 2.4166666666666665 2.4166666666666665 0 0 0 3.4166666666666665 0 2.5 2.5 0 0 0 0 -3.5c-2 -2.833333333333334 -3.5 -5.666666666666668 -5.500000000000001 -8.583333333333334Z" fill="#e0e17a" fill-rule="evenodd" stroke-width="1"></path><path d="M10.25 40.50000000000001A2.666666666666667 2.666666666666667 0 0 0 6.583333333333334 41.66666666666667 42.166666666666664 42.166666666666664 0 0 0 0.8333333333333335 55a32.16666666666667 32.16666666666667 0 0 0 -0.8333333333333335 6.25 31.666666666666668 31.666666666666668 0 0 0 0.5 6.25 50 50 0 0 0 5 13.333333333333336 2.4166666666666665 2.4166666666666665 0 0 0 2.833333333333334 1.5833333333333335 2.4166666666666665 2.4166666666666665 0 0 0 1.5 -3.0833333333333335 77.33333333333333 77.33333333333333 0 0 1 -0.41666666666666674 -15.166666666666668 92.33333333333334 92.33333333333334 0 0 1 0 -9.583333333333334 51.083333333333336 51.083333333333336 0 0 1 2.166666666666667 -10.416666666666668 2.7500000000000004 2.7500000000000004 0 0 0 -1.3333333333333335 -3.666666666666667Z" fill="#e0e17a" fill-rule="evenodd" stroke-width="1"></path><path d="M57.083333333333336 15.500000000000002a2.9166666666666665 2.9166666666666665 0 0 0 -2.7500000000000004 -2.833333333333334 43.5 43.5 0 0 0 -14.333333333333334 0 38.50000000000001 38.50000000000001 0 0 0 -9.083333333333334 3.4166666666666665c-1.8333333333333335 1.3333333333333335 -3.5833333333333335 2.5833333333333335 -5.333333333333334 4a51.58333333333334 51.58333333333334 0 0 0 -4.916666666666667 4.916666666666667 2.4166666666666665 2.4166666666666665 0 0 0 2.9166666666666665 3.9166666666666665c1.5 -0.75 2.9166666666666665 -1.416666666666667 4.416666666666667 -2s4.583333333333334 -1.666666666666667 6.916666666666667 -2.4166666666666665 3.666666666666667 -1.416666666666667 5.583333333333334 -2.0833333333333335 3.666666666666667 -1.5 5.666666666666668 -2.0833333333333335a51.75 51.75 0 0 1 8.333333333333334 -1.8333333333333335 2.833333333333334 2.833333333333334 0 0 0 2.5833333333333335 -3Z" fill="#e0e17a" fill-rule="evenodd" stroke-width="1"></path><path d="M117.83333333333334 26.583333333333336a2.7500000000000004 2.7500000000000004 0 0 0 -3.5833333333333335 -4.25 81.66666666666667 81.66666666666667 0 0 0 -13.666666666666666 19.833333333333332 39.583333333333336 39.583333333333336 0 0 0 -2.5833333333333335 -4.166666666666667c-3 -3.9166666666666665 -6.25 -7.666666666666668 -7.750000000000001 -9.333333333333336a38.50000000000001 38.50000000000001 0 0 0 -4.333333333333334 -3.666666666666667 37.41666666666667 37.41666666666667 0 0 0 -4.75 -3.333333333333334 2.4166666666666665 2.4166666666666665 0 1 0 -2.833333333333334 3.333333333333334 28.5 28.5 0 0 1 3.5833333333333335 3.5 35.083333333333336 35.083333333333336 0 0 1 2.9166666666666665 4c1.666666666666667 2.5 5.166666666666667 9.416666666666666 8.333333333333334 14.333333333333334a22.916666666666668 22.916666666666668 0 0 0 6.25 6.916666666666667 4.75 4.75 0 0 0 6.333333333333334 -2 29.416666666666668 29.416666666666668 0 0 0 1.3333333333333335 -2.7500000000000004 102.75000000000001 102.75000000000001 0 0 1 10.750000000000002 -22.416666666666668Z" fill="#e0e17a" fill-rule="evenodd" stroke-width="1"></path><path d="M134.08333333333334 17.25a60.5 60.5 0 0 1 8.333333333333334 -0.5l3.9166666666666665 0 5.75 0a62.16666666666667 62.16666666666667 0 0 1 9.666666666666666 0.75l7.083333333333334 1.75a2.9166666666666665 2.9166666666666665 0 0 0 3.7500000000000004 -1.25 2.833333333333334 2.833333333333334 0 0 0 -1.3333333333333335 -3.7500000000000004l-7.083333333333334 -3.4166666666666665a37.25 37.25 0 0 0 -7.833333333333333 -2.5 30.333333333333336 30.333333333333336 0 0 0 -8.333333333333334 -0.41666666666666674 45.91666666666667 45.91666666666667 0 0 0 -15.416666666666668 4.666666666666668 2.4166666666666665 2.4166666666666665 0 0 0 -1.5833333333333335 3.0833333333333335 2.333333333333334 2.333333333333334 0 0 0 3.0833333333333335 1.5833333333333335Z" fill="#e0e17a" fill-rule="evenodd" stroke-width="1"></path><path d="M187.00000000000003 44.16666666666667c0 1.75 0.5833333333333335 3.4166666666666665 0.9166666666666667 5.083333333333334s0.8333333333333335 3.5 1.0833333333333335 5.333333333333334 0 3.666666666666667 0 5.500000000000001a2.7500000000000004 2.7500000000000004 0 0 0 2.333333333333334 3.166666666666667 2.666666666666667 2.666666666666667 0 0 0 3.166666666666667 -2.2500000000000004 42.166666666666664 42.166666666666664 0 0 0 2.5 -11.000000000000002 24 24 0 0 0 0 -4.916666666666667 18.25 18.25 0 0 0 -1.3333333333333335 -4.75 34.333333333333336 34.333333333333336 0 0 0 -6.416666666666667 -9.416666666666666 2.4166666666666665 2.4166666666666665 0 0 0 -3.4166666666666665 -0.75 2.333333333333334 2.333333333333334 0 0 0 -0.75 3.333333333333334 64.16666666666667 64.16666666666667 0 0 1 1.916666666666667 10.666666666666668Z" fill="#e0e17a" fill-rule="evenodd" stroke-width="1"></path><path d="M172.25000000000003 100.75a2.7500000000000004 2.7500000000000004 0 0 0 3.9166666666666665 0 57.083333333333336 57.083333333333336 0 0 0 7 -6.333333333333334 23.5 23.5 0 0 0 2.4166666666666665 -3.2500000000000004 17.833333333333336 17.833333333333336 0 0 0 1.75 -3.5833333333333335 50.91666666666667 50.91666666666667 0 0 0 1.916666666666667 -9.166666666666668 2.4166666666666665 2.4166666666666665 0 0 0 -4.500000000000001 -1.8333333333333335c-2 3 -4.25 5.166666666666667 -6 7.833333333333333a47.50000000000001 47.50000000000001 0 0 0 -2.7500000000000004 4.833333333333333c-1.416666666666667 2.5833333333333335 -2.4166666666666665 5.166666666666667 -4 7.750000000000001a2.7500000000000004 2.7500000000000004 0 0 0 0.25 3.7500000000000004Z" fill="#e0e17a" fill-rule="evenodd" stroke-width="1"></path></g></svg>