<svg xmlns="http://www.w3.org/2000/svg" fill="none" viewBox="0 0 14 14" id="Telegram-Logo--Streamline-Core-Gradient.svg" height="70" width="70" stroke-width="1"><desc>Telegram Streamline Icon: https://streamlinehq.com</desc><g id="Computer Devices/Logo/telegram"><path id="Subtract" fill="url(#paint0_linear_13629_1354)" fill-rule="evenodd" d="M.000976562 7.00014C.000976562 3.13488 3.13439.00146484 6.99965.00146484c3.86525 0 6.99865 3.13341516 6.99865 6.99867516s-3.1334 6.99866-6.99865 6.99866c-3.86526 0-6.998673438-3.1334-6.998673438-6.99866ZM9.25201 11.0645l1.04509-7.9326-8.16526 3.93533 2.41772.87613L7.2348 5.86762c.21848-.16889.5325-.12868.70139.08979.16888.21848.12868.5325-.0898.70138L5.61843 8.38105l.00003 2.72605 1.68508-1.60387 1.94847 1.56127Z" clip-rule="evenodd"></path></g><defs><linearGradient id="paint0_linear_13629_1354" x1=".539" x2="16.492" y1="1.133" y2="10.124" gradientUnits="userSpaceOnUse"><stop stop-color="#00D078"></stop><stop offset="1" stop-color="#007DF0"></stop></linearGradient></defs></svg>