<svg xmlns="http://www.w3.org/2000/svg" fill="none" viewBox="-0.5 -0.5 80 80" id="Leader--Streamline-Brooklyn.svg" height="80" width="80"><desc>Leader Streamline Illustration: https://streamlinehq.com</desc><g id="leader--work-leader"><g id="cloud"><path id="vector" fill="#38a1ff" d="M20.66087 47.25227c-17.572760000000002 0.31284 -17.54985 1.036875 -17.572760000000002 0.14931 -0.05688 -2.2230600000000003 1.51601 -3.40095 2.8831050000000005 -3.0636200000000002 0.57354 0.14141 -0.39816 -0.8456950000000001 1.2884900000000001 -2.419375 0.49572499999999997 -0.46254500000000004 1.633325 -0.541545 2.39607 0.188415 0.180515 0.17301 0.126005 -0.117315 0.46333500000000005 -0.5340400000000001 0.857545 -1.05939 2.2633500000000004 -1.047935 3.032415 0.0237 0.06241 0.0869 0.0158 0.25912 0.15721000000000002 0.29072000000000003 0.14141 0.0316 0.17261500000000002 -0.14141 0.25912 -0.21211500000000003 1.0759800000000002 -0.8800600000000001 2.47665 -0.03397 2.8357050000000004 1.359195 0.04029 0.156815 0.1185 0.18130500000000002 0.227915 0.086505 0.40329499999999996 -0.35076 0.879665 -0.28203 1.3354949999999999 -0.227915 0.26702000000000004 0.031995 0.48111000000000004 0.23344499999999999 0.69125 0.40053 0.340885 0.271365 0.433315 0.6750550000000001 0.5419400000000001 1.060575 0.11929000000000001 0.423835 0.699545 -0.25201 1.751825 0.36142500000000005 1.03727 0.60435 0.9713050000000001 1.642015 1.036875 2.1602550000000003 0.052930000000000005 0.416725 -0.895465 0.369325 -1.327595 0.377225l-0.000395 -0.00079Zm0.6521450000000001 -0.48703500000000005c0.596845 -0.047005 -0.18328000000000003 -2.2629550000000003 -1.9244400000000002 -1.712325 -0.440425 0.139435 -0.47992500000000005 -0.36893000000000004 -0.8326600000000001 -1.028975 -0.385915 -0.72206 -1.21739 -0.9266700000000001 -2.042545 -0.29072000000000003 -0.47913500000000003 0.369325 -0.40290000000000004 -0.626865 -0.95037 -1.303895 -0.709815 -0.8776900000000001 -1.5835550000000003 -0.726405 -2.12115 -0.0237 -0.36458500000000005 0.47676500000000005 -0.441215 -0.28914 -0.934965 -0.7149500000000001 -0.48071500000000006 -0.41475000000000006 -1.2561000000000002 -0.40724499999999997 -1.767625 -0.0158 -0.32943 0.25201 -0.511525 0.59645 -0.7228500000000001 0.927065 -0.165505 0.25872500000000004 -0.163925 0.26544 -0.42423000000000005 0.094405 -0.31284 -0.20619 -0.620545 -0.43173500000000004 -1.00567 -0.518635 -1.5634100000000002 -0.35234000000000004 -2.2380700000000004 2.1361600000000003 -2.05795 2.40397 0.07900000000000001 0.11771 0.022910000000000003 0.147335 -0.094405 0.19631500000000002 -0.45109 0.189205 -1.49547 -0.25359000000000004 -2.317465 0.7856550000000001 -0.37841 0.4783450000000001 -0.603955 1.01357 -0.620545 1.634115 -0.01501 0.56564 -0.5340400000000001 0.10230500000000001 11.56323 -0.21211500000000003 0.0158 0.0079 4.956855 -0.11771 6.2528500000000005 -0.22001500000000002l0.00079 -0.000395Z" stroke-width="1"></path><path id="vector_2" fill="#38a1ff" d="M57.99785000000001 18.532491500000003c-23.131595 0.49059 -23.095255 1.12338 -23.12646 0.16511 -0.07900000000000001 -2.4114750000000003 1.995935 -3.69483 3.7943700000000002 -3.3227400000000005 0.75445 0.15602500000000002 -0.528905 -0.9223250000000001 1.6969200000000002 -2.62359 0.659255 -0.503625 2.14722 -0.5925 3.150125 0.204215 0.23621 0.187625 0.15879000000000001 -0.12403 0.612645 -0.5814400000000001 1.1352300000000002 -1.1431300000000002 2.9707950000000003 -1.126145 3.998585 0.0237 0.08532000000000001 0.095195 0.0158 0.28282 0.204215 0.31402500000000005 0.188415 0.031205 0.227915 -0.14891500000000002 0.345625 -0.227915 1.41568 -0.948 3.2520350000000002 -0.031205 3.73117 1.476905 0.05490500000000001 0.17301 0.15760500000000002 0.19671 0.29862 0.094405 0.527325 -0.383545 1.15419 -0.30178 1.7597250000000002 -0.24371500000000001 0.35313 0.03397 0.63595 0.25201 0.911265 0.43213000000000007 0.44714 0.291905 0.57117 0.7315400000000001 0.7070500000000001 1.154585 0.146545 0.45661999999999997 0.919165 -0.274525 2.309565 0.39263000000000003 1.3588 0.6521450000000001 1.2805900000000001 1.7818450000000001 1.359195 2.34077 0.06162 0.4392400000000001 -1.194085 0.38868 -1.751825 0.40053l-0.00079 0.000395Zm0.8563600000000001 -0.5340400000000001c0.7856550000000001 -0.05451000000000001 -0.24213500000000002 -2.446235 -2.52958 -1.853735 -0.581045 0.15049500000000002 -0.6343700000000001 -0.40211 -1.09968 -1.11548 -0.508365 -0.7793350000000001 -1.6005399999999999 -1.00251 -2.686395 -0.31402500000000005 -0.6351600000000001 0.402505 -0.5332500000000001 -0.68414 -1.24899 -1.4141000000000001 -0.9337799999999999 -0.9515549999999999 -2.08244 -0.78605 -2.7887 -0.0237 -0.47953 0.517845 -0.58223 -0.31323500000000004 -1.23319 -0.7777550000000001 -0.637135 -0.454645 -1.66058 -0.44477 -2.333265 -0.0237 -0.434105 0.27176 -0.67229 0.646615 -0.95037 1.00567 -0.401715 0.5174500000000001 -0.791185 -0.252405 -1.885335 -0.45543500000000003 -2.05874 -0.38236000000000003 -2.94591 2.317465 -2.710095 2.608185 0.10191 0.12561 0.022910000000000003 0.163135 -0.11771 0.21211500000000003 -0.5917100000000001 0.20500500000000002 -1.965125 -0.276105 -3.04782 0.8563600000000001 -0.49533000000000005 0.517845 -0.7923699999999999 1.09968 -0.81686 1.767625 -0.022910000000000003 0.620545 -0.7070500000000001 0.10981000000000002 15.224090000000002 -0.235815 0.0158 0.0158 6.520265000000001 -0.11692 8.22469 -0.235815l-0.00079 -0.000395Z" stroke-width="1"></path><path id="Subtract" fill="#38a1ff" fill-rule="evenodd" d="M33.4128525 59.24644500000001c-0.0138645 -0.002765 -0.027887 -0.005135 -0.0420675 -0.0067150000000000005 -0.014457000000000001 -0.00158 -0.028993000000000005 -0.003555 -0.043529000000000005 -0.005135 -0.3639135 -0.042660000000000003 -0.7411780000000001 -0.08729500000000001 -1.064051 0.19355 -0.09243000000000001 0.08058 -0.15484 0.06241 -0.188415 -0.070705 -0.28914 -1.1514250000000001 -1.461105 -1.85413 -2.35657 -1.12338 -0.027887 0.019750000000000004 -0.0488615 0.050165 -0.06955950000000001 0.080185 -0.037683 0.05451000000000001 -0.074497 0.10823 -0.15045550000000002 0.092825 -0.0733515 -0.009875000000000002 -0.08318700000000001 -0.0711 -0.0931805 -0.133115 -0.006083000000000001 -0.037525 -0.012166000000000001 -0.075445 -0.03242950000000001 -0.10270000000000001 -0.653725 -0.8753200000000001 -1.8102850000000001 -0.8982300000000001 -2.5216800000000004 -0.0158 -0.12083050000000001 0.1501 -0.18146299999999999 0.279265 -0.22274049999999998 0.36695500000000003 -0.055734500000000006 0.1185 -0.0761955 0.162345 -0.1619895 0.080975 -0.6367400000000001 -0.60435 -1.5717050000000001 -0.5431250000000001 -1.987245 -0.15721000000000002 -0.8853924999999999 0.821995 -0.890409 1.45597 -0.8929765000000001 1.7810550000000003 -0.0015010000000000002 0.189205 -0.0021725 0.273735 -0.1754985 0.22988999999999998 -1.1320700000000001 -0.28677 -2.4312250000000004 0.69125 -2.38817 2.5374800000000004 0.0022515 0.09559000000000001 0.00395 0.16906000000000002 0.036735000000000004 0.223965 0.215117 0.36103 1.7696000000000003 -0.07623500000000001 13.613082500000003 -0.330615 -0.038512500000000005 -0.11218 -0.07900000000000001 -0.2291 -0.12181800000000001 -0.34997 -1.575813 0.05846 -3.5913795000000004 0.103885 -3.5913795000000004 0.08729500000000001 -8.468168 0.22515 -9.4914945 0.533645 -9.595024 0.34325500000000003 -0.0193155 -0.03555 -0.0066359999999999995 -0.08848 -0.004266000000000001 -0.16274 0.01659 -0.5107349999999999 0.205795 -0.95748 0.518635 -1.351295 0.45551400000000003 -0.57354 1.1729525 -0.6059300000000001 1.621159 -0.626075 0.30466350000000003 -0.013825000000000002 0.4849415 -0.02212 0.373986 -0.190785 -0.14931 -0.22752 0.41080000000000005 -2.3020600000000004 1.70482 -1.9951450000000002 0.28491350000000004 0.06754500000000001 0.5085230000000001 0.21646 0.7399535 0.37051 0.030691500000000004 0.02054 0.06158050000000001 0.04108 0.0927065 0.06162l0.004266000000000001 0.002765c0.20863900000000002 0.137065 0.209982 0.137855 0.349259 -0.08137 0.028835 -0.04542500000000001 0.056959 -0.091245 0.085083 -0.137065 0.14180500000000001 -0.23068 0.2833335 -0.460965 0.511762 -0.6327900000000001 0.42581 -0.31995 1.0704500000000001 -0.332195 1.4690050000000001 0.0158 0.152865 0.13351000000000002 0.258172 0.304545 0.345546 0.44634999999999997 0.14745350000000002 0.239765 0.24399150000000003 0.39658000000000004 0.43220900000000007 0.15049500000000002 0.44595500000000005 -0.5826250000000001 1.17394 -0.7173200000000001 1.7597250000000002 0.0158 0.185808 0.23226 0.28380750000000005 0.509945 0.36296550000000005 0.7339100000000001 0.112654 0.318765 0.18723 0.529695 0.42268950000000005 0.34997 0.5620850000000001 -0.428575 1.121247 -0.39460500000000004 1.4823165 -0.044635 -0.06604399999999999 -0.193945 -0.13947450000000003 -0.40764 -0.22285900000000003 -0.647405Z" clip-rule="evenodd" stroke-width="1"></path><path id="Subtract_2" fill="#38a1ff" fill-rule="evenodd" d="M44.019195 44.34428c-0.41080000000000005 0.037525 -0.81765 0.250825 -1.1352300000000002 0.645035 -0.12087 0.1501 -0.18130500000000002 0.279265 -0.22277999999999998 0.36695500000000003 -0.055694999999999995 0.118895 -0.07623500000000001 0.162345 -0.16195 0.080975 -0.6367400000000001 -0.60435 -1.5717050000000001 -0.5431250000000001 -1.987245 -0.15721000000000002 -0.8851950000000001 0.821995 -0.8903300000000001 1.45597 -0.8930950000000001 1.7810550000000003 -0.00158 0.189205 -0.001975 0.273735 -0.17538 0.22988999999999998 -1.1320700000000001 -0.28677 -2.4312250000000004 0.69125 -2.38817 2.5374800000000004 0.0022515 0.09559000000000001 0.003910500000000001 0.16906000000000002 0.0366955 0.22436 0.182095 0.305335 1.323882 0.039105 8.8535695 -0.204215 -0.040685 -0.11494499999999999 -0.083345 -0.23344499999999999 -0.12798 -0.355895 -7.3832215 0.22041000000000002 -8.314315500000001 0.49098500000000006 -8.412789 0.30968 -0.0193155 -0.03555 -0.0066359999999999995 -0.08848 -0.004266000000000001 -0.16274 0.01659 -0.5107349999999999 0.205795 -0.95748 0.518635 -1.351295 0.45551400000000003 -0.57354 1.1729129999999999 -0.6059300000000001 1.62108 -0.626075 0.304545 -0.013825000000000002 0.48506 -0.02212 0.374065 -0.190785 -0.14931 -0.22752 0.41080000000000005 -2.3020600000000004 1.70482 -1.9951450000000002 0.284795 0.06794 0.508365 0.21685500000000002 0.739835 0.370905 0.03081 0.02054 0.06162 0.04108 0.092825 0.061225l0.004345 0.002765c0.20856000000000002 0.137065 0.20974500000000001 0.13824999999999998 0.34918000000000005 -0.08137 0.028835 -0.04503 0.05688 -0.09085000000000001 0.084925 -0.13666999999999999 0.14180500000000001 -0.231075 0.28361000000000003 -0.46136 0.51192 -0.633185 0.22475499999999998 -0.168665 0.51034 -0.25201 0.788815 -0.24174 -0.05451000000000001 -0.151285 -0.111785 -0.30928500000000003 -0.171825 -0.474Z" clip-rule="evenodd" stroke-width="1"></path></g><g id="route"><path id="vector_3" fill="#38a1ff" d="M50.700224999999996 38.697992c-0.164715 -0.04108 -0.34641500000000003 -0.11138999999999999 -0.52614 -0.0079 -0.1343 0.07742 -1.218575 -0.920745 1.4141000000000001 -0.46333500000000005 1.743135 0.30257 1.67243 1.11074 -0.887565 0.47123500000000007h-0.000395Z" stroke-width="1"></path><path id="vector_4" fill="#38a1ff" d="M63.77196000000001 56.577035c0.14931 -0.024095000000000002 0.298225 0.03950000000000001 0.345625 0.17301 0.117315 0.33022 1.020285 2.188695 0.604745 2.309565 -0.527325 0.15326 -1.4220000000000002 -2.405945 -0.95037 -2.48218v-0.000395Z" stroke-width="1"></path><path id="vector_5" fill="#38a1ff" d="M36.198985 37.810269000000005c-0.44003000000000003 -0.180515 -0.17301 -0.5573450000000001 0.21211500000000003 -0.46333500000000005 0.581045 0.14180500000000001 2.33761 0.43173500000000004 2.2858650000000003 0.81686 -0.06715 0.502045 -2.018845 -0.156815 -2.49798 -0.35352500000000003Z" stroke-width="1"></path><path id="vector_6" fill="#38a1ff" d="M31.014215 36.1842515c-0.259515 -0.204215 -0.07860500000000001 -0.46373 0.19631500000000002 -0.377225 4.78582 1.51048 1.193295 1.47019 -0.19631500000000002 0.377225Z" stroke-width="1"></path><path id="vector_7" fill="#38a1ff" d="M27.016025 33.568522c0.44793 0.12561 2.34077 1.060575 2.19936 1.3746 -0.070705 0.15721000000000002 -0.24332 0.16432 -0.42423000000000005 0.094405 -2.2357 -0.86505 -2.21516 -1.51601 -1.775525 -1.4690050000000001h0.000395Z" stroke-width="1"></path><path id="vector_8" fill="#38a1ff" d="M23.983610000000002 31.392467c0.41633000000000003 0.21211500000000003 2.0721700000000003 1.522725 1.869535 1.7988300000000002 -0.103095 0.14062 -0.27492 0.10981000000000002 -0.43213000000000007 0.0079 -2.008575 -1.2999450000000001 -1.853735 -1.94024 -1.437405 -1.80673Z" stroke-width="1"></path><path id="vector_9" fill="#38a1ff" d="M45.570755000000005 38.391669500000006c-0.13390500000000002 -0.013430000000000001 -0.26070000000000004 -0.06241 -0.29072000000000003 -0.21211500000000003 -0.09085000000000001 -0.454645 2.725895 -0.51192 2.63149 0.05490500000000001 -0.06004 0.36063500000000004 -1.9722350000000002 0.19434 -2.34077 0.15721000000000002Z" stroke-width="1"></path><path id="vector_10" fill="#38a1ff" d="M66.38765 62.72797500000001c-0.086505 0.024095000000000002 -0.18012 0.03871 -0.25122 -0.039105 -0.31126000000000004 -0.34049 -1.3532700000000002 -2.133395 -0.919165 -2.317465 0.39895 -0.16906000000000002 1.4220000000000002 2.2870500000000002 1.170385 2.35657Z" stroke-width="1"></path><path id="vector_11" fill="#38a1ff" d="M42.96257000000001 38.006742c0.188415 0.070705 0.28874500000000003 0.293485 0.0237 0.40053 -0.37209 0.1501 -2.346695 0.14141 -2.325365 -0.321925 0.01738 -0.37683 2.050445 -0.17301 2.3016650000000003 -0.07860500000000001Z" stroke-width="1"></path><path id="vector_12" fill="#38a1ff" d="M54.64351 39.240011c0.518635 0.16511 0.632395 0.075445 1.6969200000000002 0.9192440000000001 0.10941500000000001 0.0869 0.29941 0.33101 0.188415 0.41633000000000003 -0.25754000000000005 0.198685 -0.5956600000000001 -0.14457 -0.95037 -0.321925 -0.766695 -0.383545 -1.7988300000000002 -0.879744 -0.934965 -1.013254v-0.000395Z" stroke-width="1"></path><path id="vector_13" fill="#38a1ff" d="M58.32017 41.376645c1.209885 0.41633000000000003 2.119965 4.024655 -0.235815 0.345625 -0.12008 -0.18723 -0.0158 -0.345625 0.235815 -0.345625Z" stroke-width="1"></path><path id="vector_14" fill="#38a1ff" d="M60.28411 45.241325c-0.103095 -0.298225 0.15760500000000002 -0.37762 0.329825 -0.21211500000000003 0.8662350000000001 0.8306850000000001 1.164855 4.537365 -0.329825 0.21211500000000003Z" stroke-width="1"></path><path id="vector_15" fill="#38a1ff" d="M62.538374999999995 52.92407500000001c-0.033575 -0.54984 0.6584650000000001 -0.337725 0.887565 1.5867150000000003 0.047005 0.39263000000000003 -0.274525 0.48664 -0.44793 0.13351000000000002 -0.26623 -0.542335 -0.40290000000000004 -1.11548 -0.44003000000000003 -1.7202250000000003h0.000395Z" stroke-width="1"></path><path id="vector_16" fill="#38a1ff" d="M66.882585 63.76524500000001c-0.12561 -0.31442000000000003 0.164715 -0.39263000000000003 0.31402500000000005 -0.22001500000000002 2.21042 2.54933 0.614225 2.5445900000000004 -0.31402500000000005 0.22001500000000002Z" stroke-width="1"></path><path id="vector_17" fill="#38a1ff" d="M61.61921 49.083095c0 -0.612645 0.46531 -0.59724 0.69915 1.09968 0.12679500000000002 0.9187700000000001 -0.374855 1.0589950000000001 -0.596845 -0.29862 -0.04503 -0.275315 -0.12561 -0.54984 -0.10230500000000001 -0.801455v0.000395Z" stroke-width="1"></path><path id="vector_18" fill="#38a1ff" d="M4.8869795 15.422222c-0.280845 -0.3239 -0.21093000000000003 -0.606325 0.28282 -0.29072000000000003 1.149055 0.7347 1.242275 0.856755 1.13918 1.09178 -0.18644 0.42502000000000006 -1.137205 -0.47321 -1.4220000000000002 -0.801455v0.000395Z" stroke-width="1"></path><path id="vector_19" fill="#38a1ff" d="M3.7007629000000004 14.062948000000002c-0.13351000000000002 0.746155 -0.8626800000000001 -0.34839000000000003 -1.327595 -0.9424700000000001 -0.10349000000000001 -0.13232500000000003 -0.22001500000000002 -0.29072000000000003 -0.12561 -0.377225 0.188415 -0.19631500000000002 1.343395 1.060575 1.453205 1.319695Z" stroke-width="1"></path></g><g id="paper plane 1"><path id="vector_20" fill="#38a1ff" d="m8.013365 17.802018 12.615905 10.102125000000001 -7.266420000000001 4.941055c-0.204215 0.14141 -5.357385000000001 -15.03528 -5.349485 -15.043180000000001Z" stroke-width="1"></path><path id="vector_21" fill="#38a1ff" d="m9.36466 18.289211 16.944315 7.604145000000001c0.47123500000000007 0.204215 -0.10744000000000001 0.737465 -0.879665 5.12947 -0.0869 0.49493499999999996 -0.48703500000000005 2.2858650000000003 -0.49493499999999996 2.293765 -0.188415 -0.13351000000000002 -0.030415 -0.00869 -2.5216800000000004 -3.7548700000000004 -1.3272 -1.9955399999999999 -0.46847 -1.0953350000000002 -5.01966 -4.75264 -8.06274 -6.479185 -8.06748 -6.44956 -8.028375 -6.520265000000001v0.000395Z" stroke-width="1"></path><path id="vector_22" fill="#38a1ff" d="M8.846025000000001 17.715592c30.063055 8.515410000000001 26.28488 6.40374 20.10234 7.67485 -3.5190550000000003 0.7236400000000001 -0.337725 0.879665 -20.10234 -7.67485Z" stroke-width="1"></path><path id="vector_23" fill="#38a1ff" d="M19.474685 29.2317775c1.492705 -1.036875 1.4263450000000002 -1.097705 1.5946150000000001 -0.8405600000000001 4.45718 6.800714999999999 3.3227400000000005 4.375415 -1.5946150000000001 0.8405600000000001Z" stroke-width="1"></path></g><g id="paper plane 2"><path id="vector_24" fill="#191919" d="M34.18804 42.272110000000005c-0.0079 -0.0079 -11.908855 -3.2757745000000003 -11.956255 -3.2915745000000003 -0.5814400000000001 -0.18091000000000002 -0.047005 0.5107349999999999 1.7988300000000002 6.0016695 -0.0237 0.14141 0.919165 2.466775 1.4141000000000001 4.06139 0.10981000000000002 0.345625 0.30652 0.047005 3.77067 -2.2779650000000005 0.27492 -0.18091000000000002 0.10230500000000001 -0.13351000000000002 3.0008150000000002 2.19146 1.12338 0.895465 0.68335 1.2177850000000001 1.869535 -4.1791 0.062805 -0.26702000000000004 -0.039105 -0.13351000000000002 1.52391 -0.41633000000000003 4.33631 -0.7856550000000001 4.352110000000001 -0.5814400000000001 -1.4220000000000002 -2.08955h0.000395Zm-8.374 6.480765c-0.21211500000000003 0.14931 0 0.54984 -1.901135 -4.909455 -1.51601 -4.3442495 -1.50021 -4.187 -1.476905 -4.360049500000001C30.810000000000002 46.223295 30.346665 45.673455000000004 30.08715 45.846465c-1.9244400000000002 1.27269 -4.265605 2.8985100000000004 -4.273505 2.90641h0.000395Zm4.63493 -1.476905c-0.9898699999999999 -0.761955 -0.934965 -0.7070500000000001 -0.7856550000000001 -0.80896 0.754055 -0.5107349999999999 0.7307500000000001 -0.596845 0.8563600000000001 -0.40843 2.5058800000000003 3.7469700000000006 2.435175 3.1422250000000003 -0.070705 1.2177850000000001v-0.000395Zm2.458875 1.83833c-2.7492 -4.116295 -2.042545 -3.1264250000000002 -2.985015 -3.9357800000000003 -0.761955 -0.660045 -6.41875 -5.18082 -6.59097 -5.365285 0.0079 0.0079 8.480255000000001 4.0159650000000005 10.557955 4.862845 -0.7698550000000001 3.21293 -0.45583 2.20726 -0.9819700000000001 4.43822Zm3.7864700000000004 -5.17687c-3.3859399999999997 0.596845 -1.9481400000000002 0.754055 -4.89405 -0.56564 -6.593735000000001 -2.95223 -9.82839 -4.362419500000001 -8.17334 -3.8089850000000003 1.3331250000000001 0.44555999999999996 5.922235000000001 1.68665 14.536 4.083905000000001 -0.0158 0.07860500000000001 0 0.0316 -1.4690050000000001 0.29072000000000003h0.000395Z" stroke-width="1"></path><path id="vector_25" fill="#191919" d="M43.025375000000004 32.6334385c-3.87258 -4.30471 -4.633389500000001 -4.717485 -4.0298295 -4.791745000000001 0.05530000000000001 -0.0067150000000000005 12.270319500000001 -1.7202250000000003 12.2782195 -1.7281250000000001 5.899325 -0.903365 5.804525 -1.085065 2.136555 1.359195 -1.32009 0.879665 -1.287305 0.714555 -1.23319 0.9898699999999999 1.064525 5.42414 1.3354949999999999 4.95646 -0.05490500000000001 4.5717300000000005 -2.0468900000000003 -0.5660350000000001 -2.878365 -0.84451 -3.2484800000000003 -0.9278550000000001 -0.277685 -0.06241 -0.29585500000000003 -0.01501 -0.37288 0.103095 -2.27125 3.4925900000000003 -2.3190450000000005 3.8587550000000004 -2.560785 3.5822550000000004 -1.1000750000000001 -1.2576800000000001 -2.8752050000000002 -3.024515 -2.91431 -3.1580250000000003l-0.000395 -0.000395Zm6.38636 -1.5946150000000001c-0.189205 -0.12442500000000001 -0.142595 -0.06083 -0.620545 0.7149500000000001 -0.051745000000000006 0.08374 0.48506 0.287955 1.044775 0.43213000000000007 1.43148 0.36814 2.340375 0.6608350000000001 2.340375 0.6608350000000001s-0.7611650000000001 -0.48940500000000003 -2.764605 -1.8079150000000002Zm-10.0314595 -2.8203c0.047005 0.16511 -0.029190499999999998 0.021725 3.0873595 3.4092450000000003 3.914845 4.255335 3.558555 3.9669849999999998 3.692065 3.7548700000000004 0.0079 -0.0079 1.512455 -2.4324100000000004 2.765 -4.359615000000001 0.173405 -0.26662500000000006 0.80896 0.062805 -9.5444245 -2.8045Zm0.9504095 -0.05490500000000001c0.14931 0.15721000000000002 7.21902 2.010945 8.177685 2.309565 1.186185 0.369325 0.14931 -0.25912 4.29681 2.427275 -0.40053 -2.2546600000000003 -0.22594 -1.22292 -0.8563600000000001 -4.46982 -0.035155 -0.18170000000000003 -11.61063 -0.26702000000000004 -11.618135 -0.26702000000000004Zm9.182960000000001 -0.094405c3.2208300000000003 0.039105 1.80278 0.40408499999999997 4.72104 -1.4220000000000002 0.9215350000000001 -0.5767 1.14945 -0.778545 1.13365 -0.85715 -8.88197 1.219365 -13.49794 1.8505749999999999 -14.8757 2.0259549999999997 -0.55695 0.0711 -0.55774 0.12995500000000001 -0.053325000000000004 0.13904 1.070055 0.019750000000000004 9.074335 0.11376 9.074335 0.11376v0.000395Z" stroke-width="1"></path><path id="vector_26" fill="#191919" d="M60.747445 38.9337675c-3.87258 -4.30471 -4.63335 -4.717485 -4.02979 -4.791745000000001 0.05530000000000001 -0.0067150000000000005 12.270280000000001 -1.7202250000000003 12.27818 -1.7281250000000001 5.899325 -0.903365 5.804525 -1.085065 2.136555 1.359195 -1.32009 0.879665 -1.287305 0.714555 -1.23319 0.9898699999999999 1.064525 5.423942500000001 1.3354949999999999 4.9562625 -0.05490500000000001 4.5717300000000005 -3.58186 -0.9906600000000001 -3.4420300000000004 -1.10047 -3.6213599999999997 -0.82476 -2.27125 3.4923925000000002 -2.3190450000000005 3.8585575 -2.560785 3.5820575000000003 -1.1000750000000001 -1.2576800000000001 -2.8752050000000002 -3.0322175000000002 -2.91431 -3.1578275000000002l-0.000395 -0.000395Zm6.38636 -1.5946150000000001c-0.189205 -0.12442500000000001 -0.142595 -0.06083 -0.620545 0.7149500000000001 -0.095985 0.15602500000000002 -0.1659 0.12087 1.044775 0.43213000000000007 3.053745 0.7852600000000001 3.3456500000000005 1.3293725 -0.42423000000000005 -1.14708Zm-10.03142 -2.827805c0.047005 0.16511 -0.02923 0.021725 3.08732 3.4092450000000003 3.914845 4.255137500000001 3.558555 3.9667875 3.692065 3.7546725 0.0079 -0.0079 1.499025 -2.4409025 2.765 -4.3594175 0.17143 -0.25991000000000003 0.81686 0.062805 -9.544385 -2.8045Zm1.118245 0.00948c0.14931 0.15721000000000002 7.051145 1.9544600000000003 8.00981 2.25308 1.186185 0.369325 0.14931 -0.25912 4.29681 2.427275 -0.40053 -2.2546600000000003 -0.29862 -1.209885 -0.8563600000000001 -4.46982 -0.776965 -0.03002 -11.442755000000002 -0.21053500000000003 -11.45026 -0.21053500000000003Zm9.015085000000001 -0.15089c3.2208300000000003 0.04108 1.847415 0.47321 4.72104 -1.4220000000000002 1.249385 -0.82397 1.24899 -0.7698550000000001 1.23319 -0.8484600000000001 -9.375720000000001 1.28691 -14.117695000000001 1.8975800000000003 -15.168790000000001 2.0563700000000003 -1.18737 0.17933000000000002 2.3344500000000004 0.1264 9.214165000000001 0.21409000000000003h0.000395Z" stroke-width="1"></path><path id="vector_27" fill="#191919" d="M45.712165000000006 47.991315c-1.8462300000000003 -5.490895 -2.37948 -6.184515 -1.7988300000000002 -5.99373 0.047005 0.015405 11.948355 3.2836350000000003 11.956255 3.2836350000000003 5.773715000000001 1.50811 5.75831 1.304685 1.4220000000000002 2.08955 -1.5634100000000002 0.28282 -1.46703 0.149705 -1.52391 0.41633000000000003 -1.15419 5.40518 -0.747735 5.0765400000000005 -1.869535 4.1791 -2.9020650000000003 -2.3210200000000003 -2.726685 -2.373555 -3.0008150000000002 -2.1918550000000003 -3.475605 2.30838 -3.6620450000000004 2.6243800000000004 -3.77067 2.2779650000000005 -0.50165 -1.6005399999999999 -1.4295050000000002 -3.9278800000000005 -1.4141000000000001 -4.06139l-0.000395 0.000395Zm6.488665 1.068475c-0.12561 -0.188415 -0.10349000000000001 -0.103885 -0.8563600000000001 0.40843 -0.14931 0.10191 -0.20461000000000001 0.047795000000000004 0.7856550000000001 0.80896 2.5046950000000003 1.9260200000000003 2.5757950000000003 2.537875 0.070705 -1.2177850000000001v0.000395Zm-8.08328 -6.575170000000001c-0.0237 0.17301 -0.037525 0.01501 1.476905 4.359615000000001 1.9031099999999999 5.458900000000001 1.68902 5.058765 1.901135 4.9098500000000005 0.0079 -0.0079 2.341165 -1.645175 4.265605 -2.90641 0.26623 -0.17459000000000002 0.7307500000000001 0.38473 -7.643250000000001 -6.363055000000001h-0.000395Zm0.895465 0.337725c0.070705 0.204215 5.82941 4.712745 6.59097 5.365285 0.94326 0.8085650000000001 0.235815 -0.180515 2.985015 3.9357800000000003 0.52614 -2.23096 0.272945 -1.211465 0.9819700000000001 -4.43822 0.043055 -0.195525 -10.550055 -4.862450000000001 -10.557955 -4.862450000000001v-0.000395Zm8.468405 3.5506550000000003c2.94591 1.3193 1.50811 1.1628800000000001 4.89405 0.56564 1.4690050000000001 -0.25912 1.453205 -0.21211500000000003 1.4690050000000001 -0.29072000000000003 -19.363690000000002 -5.381085 -18.239915 -5.594385 -6.363055000000001 -0.27492Z" stroke-width="1"></path><path id="vector_28" fill="#191919" d="M34.32155 60.69333c-1.8462300000000003 -5.490895 -2.37948 -6.184515 -1.7988300000000002 -5.99373 0.047005 0.015405 11.948355 3.2836350000000003 11.956255 3.2836350000000003 5.773715000000001 1.50811 5.75831 1.304685 1.4220000000000002 2.08955 -1.5634100000000002 0.28282 -1.46703 0.149705 -1.52391 0.41633000000000003 -1.15419 5.40518 -0.747735 5.0765400000000005 -1.869535 4.1791 -2.9020650000000003 -2.3210200000000003 -2.726685 -2.373555 -3.0008150000000002 -2.1918550000000003 -3.475605 2.30838 -3.6620450000000004 2.6239850000000002 -3.77067 2.2779650000000005 -0.5004649999999999 -1.5930350000000002 -1.437405 -3.9278800000000005 -1.4141000000000001 -4.06139l-0.000395 0.000395Zm6.488665 1.076375c-0.126005 -0.188415 -0.10349000000000001 -0.103885 -0.8563600000000001 0.40843 -0.14931 0.10191 -0.17617000000000002 0.020145 0.814095 0.7817050000000001 2.41187 1.8545250000000002 2.6109500000000003 2.6571650000000004 0.042265000000000004 -1.190135Zm-8.08328 -6.575170000000001c-0.0237 0.17301 -0.037525 0.01501 1.476905 4.359615000000001 1.9031099999999999 5.458900000000001 1.68902 5.058765 1.901135 4.9098500000000005 0.0079 -0.0079 2.3542 -1.62582 4.265605 -2.90641 0.26781000000000005 -0.17933000000000002 0.7307500000000001 0.377225 -7.643250000000001 -6.363055000000001h-0.000395Zm0.895465 0.329825c0.070705 0.204215 5.82941 4.712745 6.590574999999999 5.365285 0.94326 0.8085650000000001 0.235815 -0.180515 2.985015 3.9357800000000003 0.52614 -2.23096 0.272945 -1.211465 0.9819700000000001 -4.43822 0.043055 -0.195525 -10.550055 -4.85455 -10.557955 -4.862450000000001l0.000395 -0.000395Zm8.468405 3.5506550000000003c2.94591 1.319695 1.50811 1.1628800000000001 4.89405 0.56564 1.4690050000000001 -0.25912 1.453205 -0.21211500000000003 1.4690050000000001 -0.29072000000000003 -8.536345 -2.371975 -13.127430000000002 -3.6261 -14.498475 -4.06929 -0.6225200000000001 -0.20145000000000002 -0.61067 -0.15405000000000002 -0.035945 0.12521500000000002 1.0360850000000001 0.5032300000000001 8.171365000000002 3.669155 8.171365000000002 3.669155Z" stroke-width="1"></path><path id="vector_29" fill="#191919" d="M61.689915 61.777210000000004c-0.0079 0 -9.61509 -2.63939 -9.65459 -2.65519 -0.47123500000000007 -0.14931 -0.039105 0.40843 1.453205 4.83875 -0.0158 0.10230500000000001 0.738255 1.98764 1.13918 3.2836350000000003 0.094405 0.28282 0.25122 0.03950000000000001 3.04782 -1.83833 0.22001500000000002 -0.14931 0.07860500000000001 -0.11020500000000001 2.419375 1.767625 0.911265 0.7307500000000001 0.54984 0.9819700000000001 1.50811 -3.37014 0.05490500000000001 -0.22001500000000002 -0.0237 -0.10981000000000002 1.23319 -0.337725 3.50365 -0.636345 3.51155 -0.47123500000000007 -1.14708 -1.68902l0.00079 0.000395Zm-6.763585000000001 5.2238750000000005c-0.16511 0.11771 0.0079 0.44003000000000003 -1.5318100000000001 -3.9669849999999998 -1.22529 -3.51155 -1.20949 -3.37804 -1.194085 -3.5190550000000003 6.755685000000001 5.443890000000001 6.38636 4.99596 6.17464 5.137370000000001 -1.5476100000000002 1.028975 -3.4408450000000004 2.341165 -3.448745 2.34867Zm3.7469700000000006 -1.194085c-0.801455 -0.612645 -0.754055 -0.57354 -0.636345 -0.6521450000000001 0.612645 -0.40843 0.588945 -0.47913500000000003 0.69125 -0.329825 2.018845 3.02412 1.9639400000000002 2.5374800000000004 -0.05490500000000001 0.9819700000000001Zm1.97184 1.476905c-2.20726 -3.3152350000000004 -1.6416199999999999 -2.5216800000000004 -2.40397 -3.1738250000000003 -0.612645 -0.526535 -5.25508 -4.1633 -5.318280000000001 -4.32841 0 0.0079 8.554515 3.77067 8.515410000000001 3.91998 -0.620545 2.592385 -0.369325 1.783425 -0.793555 3.5822550000000004h0.000395Zm3.0636200000000002 -4.171200000000001c-2.733795 0.48703500000000005 -1.53892 0.5597150000000001 -3.9112899999999997 -0.5008600000000001 -2.99331 -1.3422100000000001 -8.4293 -3.566455 -6.602425 -3.0213550000000002 1.1146900000000002 0.33259 4.815445 1.3738100000000002 11.699900000000001 3.286795 -0.0158 0.062805 0 0.0237 -1.186185 0.235815v-0.000395Z" stroke-width="1"></path><path id="vector_30" fill="#191919" d="M65.97922 51.635979999999996c-2.94591 -3.6292600000000004 -3.5506550000000003 -3.998585 -3.05572 -4.02979 0.039105 0 9.960715 -0.895465 9.968615 -0.895465 4.791745000000001 -0.48703500000000005 4.721830000000001 -0.6351600000000001 1.6653200000000001 1.178285 -1.09968 0.65254 -1.068475 0.52614 -1.036875 0.746155 0.62963 4.41452 0.871765 4.046775 -0.227915 3.684165 -2.8522950000000002 -0.9401 -2.7334 -1.028975 -2.8910050000000003 -0.80896 -1.95999 2.73656 -2.028325 3.0178 -2.20726 2.7887 -0.8243650000000001 -1.05465 -2.183955 -2.560785 -2.21516 -2.66309Zm5.215975 -1.028975c-0.149705 -0.10902000000000002 -0.10033 -0.04582000000000001 -0.5340400000000001 0.54984 -0.08611 0.118105 -0.13983 0.08887500000000001 0.82476 0.38473 2.4395200000000004 0.748525 2.651635 1.20949 -0.29072000000000003 -0.934965v0.000395Zm-7.973470000000001 -2.67889c0.0316 0.14141 -0.023305 0.023305 2.34867 2.8752050000000002 2.98541 3.58976 2.710095 3.34644 2.827805 3.1813300000000004 0.0079 -0.0079 1.341815 -1.885335 2.40397 -3.4013450000000005 0.15247000000000002 -0.21764500000000003 0.6521450000000001 0.070705 -7.580445 -2.65519Zm0.7698550000000001 -0.0079c0.10981000000000002 0.13351000000000002 5.741325000000001 1.9118 6.496565 2.1918550000000003 0.941285 0.34918000000000005 0.13351000000000002 -0.204215 3.37014 2.128655 -0.227915 -1.83833 -0.14141 -0.995795 -0.5107349999999999 -3.63716 -0.020935 -0.149705 -9.34807 -0.68335 -9.355970000000001 -0.68335Zm9.7407 0.20184500000000002c0.28677 -0.15326 0.67387 -0.35471 1.532205 -0.861495 1.03727 -0.6122500000000001 1.036875 -0.57354 1.021075 -0.636345 -8.04536 0.69994 -13.789055 1.058205 -12.271465000000001 1.1435250000000001 9.639185 0.542335 9.075520000000001 0.69757 9.718185000000002 0.35431500000000005Z" stroke-width="1"></path></g></g></svg>