<svg viewBox="-0.625 -0.625 100 100" xmlns="http://www.w3.org/2000/svg" id="Wedding-Celebration-1--Streamline-Ux.svg" height="100" width="100"><desc>Wedding Celebration 1 Streamline Illustration: https://streamlinehq.com</desc><path d="M13.6166375 58.318787500000006a39.5 39.5 0 1 0 79 0 39.5 39.5 0 1 0 -79 0Z" fill="#d9edff" stroke-width="1.25"></path><path d="M19.017275 95.331275a31.69085 2.9249750000000003 0 1 0 63.3817 0 31.69085 2.9249750000000003 0 1 0 -63.3817 0Z" fill="#b0d9ff" stroke-width="1.25"></path><path d="m39.6451625 67.88074999999999 22.265162500000002 0 0 25.0351 -22.265162500000002 0Z" fill="#b0d9ff" stroke-width="1.25"></path><path d="m39.6451625 82.9184 0 5.6682500000000005L60.914925000000004 67.88074999999999l-6.312100000000001 0 -14.957662500000001 15.037650000000001z" fill="#ffffff" stroke="#9b9912" stroke-linecap="round" stroke-linejoin="round" stroke-width="1.25"></path><path d="m39.6451625 67.88074999999999 22.265162500000002 0 0 25.0351 -22.265162500000002 0Z" fill="none" stroke="#9b9912" stroke-linecap="round" stroke-linejoin="round" stroke-width="1.25"></path><path d="m59.3773875 74.5286 22.265162500000002 0 0 19.6640875 -22.265162500000002 0Z" fill="#b0d9ff" stroke-width="1.25"></path><path d="m59.3773875 74.5286 22.265162500000002 0 0 19.6640875 -22.265162500000002 0Z" fill="none" stroke="#9b9912" stroke-linecap="round" stroke-linejoin="round" stroke-width="1.25"></path><path d="M81.6415625 82.126425H77.42000000000002a0.8976375000000001 0.8976375000000001 0 0 1 -0.8976375000000001 -0.8976375000000001v-6.7001875h-3.8996375v6.7001875a0.8976375000000001 0.8976375000000001 0 0 1 -0.8976375000000001 0.8976375000000001h-12.34375v4.753825h12.34375a0.8976375000000001 0.8976375000000001 0 0 1 0.8976375000000001 0.8976375000000001v6.41875h3.8996375v-6.41875a0.8976375000000001 0.8976375000000001 0 0 1 0.8976375000000001 -0.8976375000000001h4.2215625Z" fill="#ffffff" stroke="#9b9912" stroke-linecap="round" stroke-linejoin="round" stroke-width="1.25"></path><path d="m61.907362500000005 58.6733 18.333925 0 0 15.867150000000002 -18.333925 0Z" fill="#b0d9ff" stroke-width="1.25"></path><path d="M64.20823750000001 64.11837500000001a1.5138375 1.5138375 0 1 0 3.027675 0 1.5138375 1.5138375 0 1 0 -3.027675 0Z" fill="#ffffff" stroke-width="1.25"></path><path d="M68.49991250000001 67.14506250000001a1.5138375 1.5138375 0 1 0 3.027675 0 1.5138375 1.5138375 0 1 0 -3.027675 0Z" fill="#ffffff" stroke-width="1.25"></path><path d="M73.6704625 71.6618875a1.5138375 1.5138375 0 1 0 3.027675 0 1.5138375 1.5138375 0 1 0 -3.027675 0Z" fill="#ffffff" stroke-width="1.25"></path><path d="M64.3761125 71.6618875a1.5138375 1.5138375 0 1 0 3.027675 0 1.5138375 1.5138375 0 1 0 -3.027675 0Z" fill="#ffffff" stroke-width="1.25"></path><path d="m61.907362500000005 58.6733 18.333925 0 0 15.867150000000002 -18.333925 0Z" fill="none" stroke="#9b9912" stroke-linecap="round" stroke-linejoin="round" stroke-width="1.25"></path><path d="M80.91180000000001 61.376087500000004H61.100575000000006a0.42265 0.42265 0 0 1 -0.42265 -0.42265v-2.8706625000000003a0.42265 0.42265 0 0 1 0.42265 -0.42265H80.91575a0.42265 0.42265 0 0 1 0.42265 0.42265v2.86375a0.42660000000000003 0.42660000000000003 0 0 1 -0.42660000000000003 0.4295625Z" fill="#b0d9ff" stroke-width="1.25"></path><path d="M80.91180000000001 61.376087500000004H61.100575000000006a0.42265 0.42265 0 0 1 -0.42265 -0.42265v-2.8706625000000003a0.42265 0.42265 0 0 1 0.42265 -0.42265H80.91575a0.42265 0.42265 0 0 1 0.42265 0.42265v2.86375a0.42660000000000003 0.42660000000000003 0 0 1 -0.42660000000000003 0.4295625Z" fill="none" stroke="#9b9912" stroke-linecap="round" stroke-linejoin="round" stroke-width="1.25"></path><path d="M58.230900000000005 61.225a4.2650125 4.2650125 0 0 0 -0.4591875 -0.5697875 3.98555 3.98555 0 0 0 -1.2462250000000001 -0.8522125c-0.2844 1.0191000000000001 0.171825 5.46285 -6.2735875 8.313762500000001a25.519962500000002 25.519962500000002 0 0 0 6.012887500000001 -0.8936875000000001 3.9727125 3.9727125 0 0 0 1.975 -6.002025000000001" fill="#ffffff" stroke="#9b9912" stroke-linecap="round" stroke-linejoin="round" stroke-width="1.25"></path><path d="M44.0770625 59.7289375A3.9825875000000006 3.9825875000000006 0 0 0 44.250862500000004 67.15a25.728324999999998 25.728324999999998 0 0 0 6.0010375 0.9608375c-6.406900000000001 -2.923 -5.904262500000001 -7.3568750000000005 -6.174837500000001 -8.3819Z" fill="#ffffff" stroke="#9b9912" stroke-linecap="round" stroke-linejoin="round" stroke-width="1.25"></path><path d="M52.461925 64.067025a12.5698875 12.5698875 0 0 0 -2.210025 4.04875 25.945575 25.945575 0 0 1 0.9746625 -6.0839875 3.9796250000000004 3.9796250000000004 0 0 1 6.5451500000000005 -1.3825 4.2650125 4.2650125 0 0 1 0.4591875 0.5697875c-1.5484000000000002 -0.1451625 -3.81965 0.9173875000000001 -5.768975 2.84795Z" fill="#ffffff" stroke="#9b9912" stroke-linecap="round" stroke-linejoin="round" stroke-width="1.25"></path><path d="M50.2519 68.11182500000001c-3.5046375000000003 3.2469 -3.5105625000000003 6.5175 -3.130375 8.3236375a0.8986250000000001 0.8986250000000001 0 0 1 -1.0862500000000002 1.0586000000000002l-1.8278625000000002 -0.440425a0.8966500000000001 0.8966500000000001 0 0 1 -0.69125 -0.8532000000000001c-0.08393750000000001 -3.967775 4.0813375 -8.1024375 6.7357375 -8.088612500000002Z" fill="#ffffff" stroke="#9b9912" stroke-linecap="round" stroke-linejoin="round" stroke-width="1.25"></path><path d="M50.2519 68.11182500000001c3.470075 3.2864 3.4384750000000004 6.5550250000000005 3.0365625000000005 8.3591875a0.8986250000000001 0.8986250000000001 0 0 0 1.0753875 1.0704500000000001l1.8318125 -0.4187a0.8966500000000001 0.8966500000000001 0 0 0 0.6961875 -0.8453c0.1343 -3.9667875000000006 -3.983575 -8.1478625 -6.639950000000001 -8.1656375Z" fill="#ffffff" stroke="#9b9912" stroke-linecap="round" stroke-linejoin="round" stroke-width="1.25"></path><path d="M42.345975 61.12625a3.9786375 3.9786375 0 0 1 7.0023625 0.88875 25.9189125 25.9189125 0 0 1 0.9035625 6.0938625 12.515575 12.515575 0 0 0 -2.1606500000000004 -4.06455c-1.9345125 -1.9592 -4.1919375 -3.04545 -5.7452749999999995 -2.9180625Z" fill="#ffffff" stroke="#9b9912" stroke-linecap="round" stroke-linejoin="round" stroke-width="1.25"></path><path d="M71.2975 34.3008125q0 4.160337500000001 0.080975 8.3187c0.0079 0.39993750000000006 -2.182375 0.88875 -2.4964 0.9450375a18.66375 18.66375 0 0 1 -2.7363625000000003 0.1846625 13.627500000000001 13.627500000000001 0 0 1 -5.575425 -0.6547125c-1.0497125 -0.416725 -2.1991625 -0.6379250000000001 -3.2785 -1.0240375a14.680175 14.680175 0 0 1 -3.0780375 -1.3746 4.9207125 4.9207125 0 0 1 -2.1033749999999998 -2.5546625000000005 0.7821 0.7821 0 0 1 -0.047400000000000005 -0.3762375 0.855175 0.855175 0 0 1 0.3584625 -0.4710375 32.542075000000004 32.542075000000004 0 0 0 2.5941625 -1.975c1.9048875 -1.8515625 2.4104875 -4.67285 2.818325 -7.2986125 0.45030000000000003 -2.905225 0.5293000000000001 -6.1590375 1.6402375 -8.9033a12.0682375 12.0682375 0 0 1 9.9095625 -7.5731375c2.5289875 -0.171825 5.5625875 1.1998125000000002 5.358175 4.13565 -0.15207500000000002 2.1774375000000004 -1.2946125 4.126762500000001 -1.992775 6.152125000000001 -1.3696625 3.9766625 -1.451625 8.265374999999999 -1.451625 12.469162500000001Z" fill="#ffffff" stroke="#9b9912" stroke-linecap="round" stroke-linejoin="round" stroke-width="1.25"></path><path d="M92.13375 45.16035a1.4733500000000002 1.4733500000000002 0 0 1 -1.6175249999999999 -1.3153500000000002l-0.44141250000000004 -4.029987500000001a1.7775 1.7775 0 0 1 0.395 -1.3035l0.24095 -0.29625a2.9773125000000005 2.9773125000000005 0 0 1 -3.0375500000000004 0.3110625l0.29625 0.2399625a1.7775 1.7775 0 0 1 0.6448375000000001 1.1978375l0.44141250000000004 4.029987500000001a1.4743375 1.4743375 0 0 1 -1.3163375 1.61555 0.7366750000000001 0.7366750000000001 0 1 0 0.148125 1.4644625000000002l4.398325 -0.44733750000000005a0.7366750000000001 0.7366750000000001 0 0 0 -0.1491125 -1.4664375Z" fill="#b0d9ff" stroke="#9b9912" stroke-linecap="round" stroke-linejoin="round" stroke-width="1.25"></path><path d="m91.8424375 35.210300000000004 -1.3074500000000002 -6.1866875a0.8216 0.8216 0 0 0 -0.88875 -0.6468125l-2.9309000000000003 0.29625a0.819625 0.819625 0 0 0 -0.7366750000000001 0.8107375l-0.032587500000000005 6.32a2.9792875 2.9792875 0 1 0 5.893400000000001 -0.6004Z" fill="#b0d9ff" stroke-width="1.25"></path><path d="M85.9490375 35.810700000000004a2.9792875 2.9792875 0 1 0 5.893400000000001 -0.6004l-0.464125 -2.194225 -5.4184125000000005 0.5510250000000001Z" fill="#ffffff" stroke-width="1.25"></path><path d="M85.9490375 35.810700000000004a2.9792875 2.9792875 0 1 0 5.893400000000001 -0.6004l-0.464125 -2.194225 -5.4184125000000005 0.5510250000000001Z" fill="none" stroke="#9b9912" stroke-linecap="round" stroke-linejoin="round" stroke-width="1.25"></path><path d="m91.8424375 35.210300000000004 -1.3074500000000002 -6.1866875a0.8216 0.8216 0 0 0 -0.88875 -0.6468125l-2.9309000000000003 0.29625a0.819625 0.819625 0 0 0 -0.7366750000000001 0.8107375l-0.032587500000000005 6.32a2.9792875 2.9792875 0 1 0 5.893400000000001 -0.6004Z" fill="none" stroke="#9b9912" stroke-linecap="round" stroke-linejoin="round" stroke-width="1.25"></path><path d="m76.24120224694501 76.2265305069725 3.6334146188875 -8.7068653163825 3.6243671094237504 1.51246492980625 -3.6334146188875 8.7068653163825z" fill="#ffffff" stroke="#9b9912" stroke-linecap="round" stroke-linejoin="round" stroke-width="1.25"></path><path d="M81.660325 81.4065375a0.24983750000000002 0.24983750000000002 0 0 1 -0.32686250000000006 0.1343l-2.79265 -1.16525 -0.432525 -0.7514875000000001a0.8976375000000001 0.8976375000000001 0 0 0 -1.4812500000000002 -0.1036875l-1.2837500000000002 -0.4819a0.2478625 0.2478625 0 0 1 -0.1343 -0.325875l1.0862500000000002 -2.6000875000000003 3.8561875 1.6096249999999999a2.818325 2.818325 0 0 1 1.5158125 3.6843625Z" fill="#b0d9ff" stroke-width="1.25"></path><path d="M81.660325 81.4065375a0.24983750000000002 0.24983750000000002 0 0 1 -0.32686250000000006 0.1343l-2.79265 -1.16525 -0.432525 -0.7514875000000001a0.8976375000000001 0.8976375000000001 0 0 0 -1.4812500000000002 -0.1036875l-1.2837500000000002 -0.4819a0.2478625 0.2478625 0 0 1 -0.1343 -0.325875l1.0862500000000002 -2.6000875000000003 3.8561875 1.6096249999999999a2.818325 2.818325 0 0 1 1.5158125 3.6843625Z" fill="none" stroke="#9b9912" stroke-linecap="round" stroke-linejoin="round" stroke-width="1.25"></path><path d="m83.67829193277501 67.09676990339126 3.7240132689325 -1.24712159786 2.9959768031975003 8.946246611012501 -3.72401326903125 1.24712159786z" fill="#ffffff" stroke-width="1.25"></path><path d="m83.67829193277501 67.09676990339126 3.7240132689325 -1.24712159786 2.9959768031975003 8.946246611012501 -3.72401326903125 1.24712159786z" fill="none" stroke="#9b9912" stroke-linecap="round" stroke-linejoin="round" stroke-width="1.25"></path><path d="m94.01 76.6922125 -2.8696750000000004 0.9608375 -0.8206125 -0.28045a0.8966500000000001 0.8966500000000001 0 0 0 -1.185 0.8996125l-1.2837500000000002 0.4828875a0.250825 0.250825 0 0 1 -0.316 -0.1570125l-0.8946750000000001 -2.672175 3.9628375 -1.3262125a2.81635 2.81635 0 0 1 3.5658625 1.7775 0.250825 0.250825 0 0 1 -0.1589875 0.31501250000000003Z" fill="#b0d9ff" stroke-width="1.25"></path><path d="M94.16405 76.37621250000001a0.250825 0.250825 0 0 1 -0.158 0.316l-2.8696750000000004 0.9608375 -0.8206125 -0.28045a0.8966500000000001 0.8966500000000001 0 0 0 -1.185 0.8996125l-1.2837500000000002 0.4828875a0.250825 0.250825 0 0 1 -0.316 -0.1570125l-0.8946750000000001 -2.672175 3.9628375 -1.3262125a2.81635 2.81635 0 0 1 3.5658625 1.7775Z" fill="none" stroke="#9b9912" stroke-linecap="round" stroke-linejoin="round" stroke-width="1.25"></path><path d="M79.1649125 44.008925000000005v0.1866375a7.882225000000001 7.882225000000001 0 0 0 5.68405 7.5188250000000005c5.6514625 1.6994875000000003 7.4190875 7.463525 7.1485125 15.358587500000002a1.7775 1.7775 0 0 1 -1.2837500000000002 1.63925c-6.0306625 1.7686125 -11.8746875 2.9121375 -16.811200000000003 1.017125a1.8278625000000002 1.8278625000000002 0 0 1 -1.0862500000000002 -2.1636124999999997l1.937475 -7.5405500000000005a0.7327250000000001 0.7327250000000001 0 0 0 -0.7238375 -0.709025h0a7.459575000000001 7.459575000000001 0 0 1 -5.4598875 -2.46875h0a7.4566125 7.4566125 0 0 1 -1.9108125000000002 -5.144875l0.16195 -7.6896625" fill="#ffffff" stroke="#9b9912" stroke-linecap="round" stroke-linejoin="round" stroke-width="1.25"></path><path d="M79.1649125 44.008925000000005v-3.477975s-2.0293125 -3.039525 -5.6020875000000006 -0.45227500000000004a0.97565 0.97565 0 0 1 -1.1366125 0.0049375 3.659675 3.659675 0 0 0 -5.6040625 1.0082375v2.9170750000000005" fill="#ffffff" stroke="#9b9912" stroke-linecap="round" stroke-linejoin="round" stroke-width="1.25"></path><path d="m92.435925 41.164925000000004 -0.02765 -0.0444375a1.9305625000000002 1.9305625000000002 0 0 0 -2.684025 -0.6191625000000001l-5.6169 3.5816624999999997a0.6724875000000001 0.6724875000000001 0 0 1 -1.01515 -0.5786749999999999v-0.080975a10.105087500000002 10.105087500000002 0 0 0 -7.603750000000001 -9.88685c-0.2419375 -0.0582625 -0.720875 -0.21428750000000002 -0.720875 -0.6013875v-2.5675000000000003h-3.5471000000000004v2.2603875a0.993425 0.993425 0 0 1 -0.7663000000000001 0.95195 10.089287500000001 10.089287500000001 0 0 0 -7.559312500000001 9.758475V47.893750000000004a11.004700000000001 11.004700000000001 0 0 0 2.1991625 6.5984750000000005l1.5622250000000002 2.083625a1.965125 1.965125 0 0 0 3.051375 0.11455000000000001 2.024375 2.024375 0 0 0 0.038512500000000005 -2.541825L68.23625 52.14a7.0714875 7.0714875 0 0 1 -1.412125 -4.2393375v-6.8088125a3.6537500000000005 3.6537500000000005 0 0 1 5.5862875 -1.0200875 1.001325 1.001325 0 0 0 1.1573499999999999 0.0049375c3.5708 -2.5833000000000004 5.5981375 0.45425000000000004 5.5981375 0.45425000000000004v2.8943625a4.5908875 4.5908875 0 0 0 6.965825000000001 4.0240625L91.8375 43.795625a1.9276 1.9276 0 0 0 0.598425 -2.6307000000000005Z" fill="#ffffff" stroke-width="1.25"></path><path d="m92.435925 41.164925000000004 -0.02765 -0.0444375a1.9305625000000002 1.9305625000000002 0 0 0 -2.684025 -0.6191625000000001l-5.6169 3.5816624999999997a0.6724875000000001 0.6724875000000001 0 0 1 -1.01515 -0.5786749999999999v-0.080975a10.105087500000002 10.105087500000002 0 0 0 -7.603750000000001 -9.88685c-0.2419375 -0.0582625 -0.720875 -0.21428750000000002 -0.720875 -0.6013875v-2.5675000000000003h-3.5471000000000004v2.2603875a0.993425 0.993425 0 0 1 -0.7663000000000001 0.95195 10.089287500000001 10.089287500000001 0 0 0 -7.559312500000001 9.758475V47.893750000000004a11.004700000000001 11.004700000000001 0 0 0 2.1991625 6.5984750000000005l1.5622250000000002 2.083625a1.965125 1.965125 0 0 0 3.051375 0.11455000000000001 2.024375 2.024375 0 0 0 0.038512500000000005 -2.541825L68.23625 52.14a7.0714875 7.0714875 0 0 1 -1.412125 -4.2393375v-6.8088125a3.6537500000000005 3.6537500000000005 0 0 1 5.5862875 -1.0200875 1.001325 1.001325 0 0 0 1.1573499999999999 0.0049375c3.5708 -2.5833000000000004 5.5981375 0.45425000000000004 5.5981375 0.45425000000000004v2.8943625a4.5908875 4.5908875 0 0 0 6.965825000000001 4.0240625L91.8375 43.795625a1.9276 1.9276 0 0 0 0.598425 -2.6307000000000005Z" fill="none" stroke="#9b9912" stroke-linecap="round" stroke-linejoin="round" stroke-width="1.25"></path><path d="M72.99402500000001 16.260175a6.732775 6.732775 0 0 0 -6.732775 6.7317875v0.8986250000000001a1.3746 1.3746 0 0 0 0.1412125 2.7205625 6.6646374999999995 6.6646374999999995 0 0 0 6.5915625 5.3571875 6.7317875 6.7317875 0 0 0 6.7317875 -6.7317875v-2.2445875a6.7317875 6.7317875 0 0 0 -6.7317875 -6.7317875Z" fill="#ffffff" stroke="#9b9912" stroke-linecap="round" stroke-linejoin="round" stroke-width="1.25"></path><path d="M71.311325 23.8333125a0.84135 0.84135 0 1 0 1.6827 0 0.84135 0.84135 0 1 0 -1.6827 0Z" fill="#9b9912" stroke-width="1.25"></path><path d="M75.7995125 23.8333125a0.84135 0.84135 0 1 0 1.6827 0 0.84135 0.84135 0 1 0 -1.6827 0Z" fill="#9b9912" stroke-width="1.25"></path><path d="M69.0667375 26.077900000000003a0.84135 0.84135 0 1 0 1.6827 0 0.84135 0.84135 0 1 0 -1.6827 0Z" fill="#b0d9ff" stroke-width="1.25"></path><path d="M72.433125 28.0924a2.9081875 2.9081875 0 0 0 3.3654 0" fill="none" stroke="#9b9912" stroke-linecap="round" stroke-linejoin="round" stroke-width="1.25"></path><path d="M80.7212125 18.5255a5.0500750000000005 5.0500750000000005 0 0 0 -4.927625000000001 -3.95 5.53 5.53 0 0 0 -2.7995625 0.7761750000000001 5.53 5.53 0 0 0 -2.80055 -0.7761750000000001 5.048100000000001 5.048100000000001 0 0 0 -4.9266375 3.95c-0.5144875 2.3058125 -2.37 4.4664625 -0.69125 8.39375 1.6037000000000001 3.7416375000000004 -2.3946875 6.973725000000001 4.0161625 8.726537500000001a0.5618875 0.5618875 0 0 0 0.681375 -0.71495c-1.499025 -4.5978 1.37065 -4.3933875 -0.20935 -9.133387500000001 -0.9559 -2.86375 -1.1218 -5.049087500000001 1.1218 -5.049087500000001a3.43255 3.43255 0 0 0 2.8054875000000004 -1.0645250000000002 5.058962500000001 5.058962500000001 0 0 0 3.3654 1.625425 4.2077375 4.2077375 0 0 1 3.3663875 1.67875c-2.537875 4.061587500000001 1.8140375 7.203812500000001 -1.4921125 11.50635a0.4789375 0.4789375 0 0 0 0.5737375 0.7297625c5.1814125 -2.2979125000000002 1.58 -5.7650250000000005 2.6020624999999997 -8.308825 1.5888875 -3.9628375 -0.1708375 -6.07905 -0.685325 -8.389800000000001Z" fill="#ffffff" stroke-width="1.25"></path><path d="M80.7212125 18.5255a5.0500750000000005 5.0500750000000005 0 0 0 -4.927625000000001 -3.95 5.53 5.53 0 0 0 -2.7995625 0.7761750000000001 5.53 5.53 0 0 0 -2.80055 -0.7761750000000001 5.048100000000001 5.048100000000001 0 0 0 -4.9266375 3.95c-0.5144875 2.3058125 -2.37 4.4664625 -0.69125 8.39375 1.6037000000000001 3.7416375000000004 -2.3946875 6.973725000000001 4.0161625 8.726537500000001a0.5618875 0.5618875 0 0 0 0.681375 -0.71495c-1.491125 -4.5741 1.3825 -4.3696875 -0.20935 -9.133387500000001 -0.9559 -2.86375 -1.1218 -5.049087500000001 1.1218 -5.049087500000001a3.43255 3.43255 0 0 0 2.8054875000000004 -1.0645250000000002 5.058962500000001 5.058962500000001 0 0 0 3.3654 1.625425 4.2077375 4.2077375 0 0 1 3.3663875 1.67875c-2.537875 4.061587500000001 1.8140375 7.203812500000001 -1.4921125 11.50635a0.4789375 0.4789375 0 0 0 0.5737375 0.7297625c5.1814125 -2.2979125000000002 1.58 -5.7650250000000005 2.6020624999999997 -8.308825 1.5888875 -3.9628375 -0.1708375 -6.07905 -0.685325 -8.389800000000001Z" fill="none" stroke="#9b9912" stroke-linecap="round" stroke-linejoin="round" stroke-width="1.25"></path><path d="M78.0885375 21.347775a1.4091625 1.4091625 0 0 1 2.7541375 -0.6013875c0.207375 0.949975 -0.7751875 3.0543375 -0.7751875 3.0543375s-1.7705875 -1.5019875 -1.97895 -2.45295Z" fill="#ffffff" stroke="#9b9912" stroke-linecap="round" stroke-linejoin="round" stroke-width="1.25"></path><path d="M67.07791250000001 17.0906625a1.4091625 1.4091625 0 1 1 -1.8258875 2.146825c-0.760375 -0.6458250000000001 -1.2156125000000002 -2.8124 -1.234375 -2.8993 0 0 2.31865 0.12245 3.0602625000000003 0.752475Z" fill="#ffffff" stroke="#9b9912" stroke-linecap="round" stroke-linejoin="round" stroke-width="1.25"></path><path d="m81.9704 19.625575 -17.95275 0" fill="none" stroke="#9b9912" stroke-linecap="round" stroke-linejoin="round" stroke-width="1.25"></path><path d="M71.3103375 17.9725a1.6678875000000002 1.6678875000000002 0 0 0 -0.6250875 0.1234375 1.67875 1.67875 0 0 0 -3.3012125 0.43746250000000003 1.657025 1.657025 0 0 0 0.22416250000000001 0.8245625 1.67875 1.67875 0 1 0 2.5675000000000003 1.534575 1.67875 1.67875 0 1 0 1.1346375 -2.9200375Z" fill="#ffffff" stroke="#9b9912" stroke-linecap="round" stroke-linejoin="round" stroke-width="1.25"></path><path d="m72.99402500000001 37.725462500000006 0 2.5388625000000005" fill="none" stroke="#9b9912" stroke-linecap="round" stroke-linejoin="round" stroke-width="1.25"></path><path d="m66.82215000000001 41.09185 -4.3222875 -1.7656500000000002a2.0984375 2.0984375 0 0 0 -2.4193750000000005 0.6171875c-1.3528750000000003 1.67875 -1.0862500000000002 3.2014750000000003 0.5322625000000001 4.593850000000001 1.83675 1.67875 3.9430875 1.2156125000000002 6.2094000000000005 -0.5283125000000001Z" fill="#b0d9ff" stroke="#9b9912" stroke-linecap="round" stroke-linejoin="round" stroke-width="1.25"></path><path d="m79.04740000000001 40.481575 3.5717875 -2.0273375000000002a1.8476125 1.8476125 0 0 1 2.1804 0.2656375c1.3686749999999999 1.3104125 1.3104125 2.6662500000000002 0.053325000000000004 4.066525 -1.412125 1.67875 -3.3022 1.50495 -5.476675 0.2399625Z" fill="#b0d9ff" stroke="#9b9912" stroke-linecap="round" stroke-linejoin="round" stroke-width="1.25"></path><path d="M42.2245125 22.2533125a3.197525 3.197525 0 0 1 1.2837500000000002 -2.5605875 2.529975 2.529975 0 0 1 3.46415 0.45425000000000004l0.96775 1.14155 1.0121875 -1.1030375000000001a2.529975 2.529975 0 0 1 3.47995 -0.317975 3.2034500000000006 3.2034500000000006 0 0 1 1.179075 2.6079875 4.1228125 4.1228125 0 0 1 -1.32325 2.9931125l-3.7712625 3.3515750000000004a1.0655125 1.0655125 0 0 1 -1.4466875000000001 -0.028637500000000003l-3.6369625 -3.49575a4.1208375 4.1208375 0 0 1 -1.2087 -3.0424875Z" fill="#b0d9ff" stroke-width="1.25"></path><path d="M42.2245125 22.2533125a3.197525 3.197525 0 0 1 1.2837500000000002 -2.5605875 2.529975 2.529975 0 0 1 3.46415 0.45425000000000004l0.96775 1.14155 1.0121875 -1.1030375000000001a2.529975 2.529975 0 0 1 3.47995 -0.317975 3.2034500000000006 3.2034500000000006 0 0 1 1.179075 2.6079875 4.1228125 4.1228125 0 0 1 -1.32325 2.9931125l-3.7712625 3.3515750000000004a1.0655125 1.0655125 0 0 1 -1.4466875000000001 -0.028637500000000003l-3.6369625 -3.49575a4.1208375 4.1208375 0 0 1 -1.2087 -3.0424875Z" fill="none" stroke="#9b9912" stroke-linecap="round" stroke-linejoin="round" stroke-width="1.25"></path><path d="M51.379625000000004 4.1524375000000004A3.8384125 3.8384125 0 0 1 52.91420000000001 1.0862500000000002a3.0336000000000003 3.0336000000000003 0 0 1 4.153425 0.5441125000000001l1.1613 1.3696625 1.214625 -1.32325a3.0336000000000003 3.0336000000000003 0 0 1 4.1721875 -0.38117500000000004 3.8384125 3.8384125 0 0 1 1.4131125000000002 3.1284 4.9375 4.9375 0 0 1 -1.5859250000000003 3.5875875l-4.5217625 4.0201125a1.277825 1.277825 0 0 1 -1.7350375 -0.033575L52.82335 7.8012500000000005a4.943425 4.943425 0 0 1 -1.443725 -3.6488125Z" fill="#b0d9ff" stroke-width="1.25"></path><path d="M51.379625000000004 4.1524375000000004A3.8384125 3.8384125 0 0 1 52.91420000000001 1.0862500000000002a3.0336000000000003 3.0336000000000003 0 0 1 4.153425 0.5441125000000001l1.1613 1.3696625 1.214625 -1.32325a3.0336000000000003 3.0336000000000003 0 0 1 4.1721875 -0.38117500000000004 3.8384125 3.8384125 0 0 1 1.4131125000000002 3.1284 4.9375 4.9375 0 0 1 -1.5859250000000003 3.5875875l-4.5217625 4.0201125a1.277825 1.277825 0 0 1 -1.7350375 -0.033575L52.82335 7.8012500000000005a4.943425 4.943425 0 0 1 -1.443725 -3.6488125Z" fill="none" stroke="#9b9912" stroke-linecap="round" stroke-linejoin="round" stroke-width="1.25"></path><path d="M20.0028 73.43050000000001v21.409a1.2235125000000002 1.2235125000000002 0 0 0 1.222525 1.2235125000000002h3.0968000000000004a1.2235125000000002 1.2235125000000002 0 0 0 1.222525 -1.185l0.44338750000000005 -13.9593A2.01845 2.01845 0 0 1 27.4525 79a1.9680875000000002 1.9680875000000002 0 0 1 2.46875 1.8387250000000002l0.44536250000000005 14.040275000000001a1.2245000000000001 1.2245000000000001 0 0 0 1.2235125000000002 1.185h3.0958125a1.226475 1.226475 0 0 0 1.2254875 -1.2235125000000002V73.43050000000001Z" fill="#b0d9ff" stroke-width="1.25"></path><path d="M20.0028 73.43050000000001v21.409a1.2235125000000002 1.2235125000000002 0 0 0 1.222525 1.2235125000000002h3.0968000000000004a1.2235125000000002 1.2235125000000002 0 0 0 1.222525 -1.185l0.44338750000000005 -13.9593A2.01845 2.01845 0 0 1 27.4525 79a1.9680875000000002 1.9680875000000002 0 0 1 2.46875 1.8387250000000002l0.44536250000000005 14.040275000000001a1.2245000000000001 1.2245000000000001 0 0 0 1.2235125000000002 1.185h3.0958125a1.226475 1.226475 0 0 0 1.2254875 -1.2235125000000002V73.43050000000001Z" fill="none" stroke="#9b9912" stroke-linecap="round" stroke-linejoin="round" stroke-width="1.25"></path><path d="M36.186937500000006 96.0630125a1.2195625 1.2195625 0 0 0 1.0971125 -1.7775 3.6675750000000003 3.6675750000000003 0 0 0 -3.213325 -1.896h-0.6112625a3.6705375000000005 3.6705375000000005 0 0 0 -3.2143125 1.896 1.2195625 1.2195625 0 0 0 1.0981 1.7775Z" fill="#ffffff" stroke="#9b9912" stroke-linecap="round" stroke-linejoin="round" stroke-width="1.25"></path><path d="M24.564062500000002 96.0630125a1.2195625 1.2195625 0 0 0 1.0981 -1.7775 3.6695500000000005 3.6695500000000005 0 0 0 -3.213325 -1.896h-0.6122500000000001a3.6695500000000005 3.6695500000000005 0 0 0 -3.213325 1.896 1.2195625 1.2195625 0 0 0 1.0981 1.7775Z" fill="#ffffff" stroke="#9b9912" stroke-linecap="round" stroke-linejoin="round" stroke-width="1.25"></path><path d="M27.954150000000002 50.797987500000005a12.8207125 12.8207125 0 0 0 -3.9974000000000003 0.6349625000000001l0.0395 21.99755h7.927650000000001l0.0345625 -21.9965625a12.814787500000001 12.814787500000001 0 0 0 -4.0043125 -0.63595Z" fill="#ffffff" stroke="#9b9912" stroke-linecap="round" stroke-linejoin="round" stroke-width="1.25"></path><path d="m27.955137500000003 55.0797875 0 18.3507125" fill="none" stroke="#9b9912" stroke-linecap="round" stroke-linejoin="round" stroke-width="1.25"></path><path d="M29.723750000000003 50.1018V47.874h-3.5421625000000003v2.2278a0.9647875 0.9647875 0 0 1 -0.7692625000000001 0.9509625q-0.606325 0.120475 -1.1899375 0.29625l3.7307750000000004 3.7317625L31.684925 51.35q-0.5816375 -0.1747875 -1.185 -0.29625a0.965775 0.965775 0 0 1 -0.7761750000000001 -0.95195Z" fill="#ffffff" stroke="#9b9912" stroke-linecap="round" stroke-linejoin="round" stroke-width="1.25"></path><path d="M15.10875 63.6433875c0 1.2235125000000002 0.14615 2.450975 -1.222525 2.715625 -1.00725 0.2518125 -1.4032375000000001 -0.39006250000000003 -1.9088375000000002 -1.198825L7.16925 67.77805c3.9786375 6.726850000000001 10.9148375 3.8384125 12.8375 1.052675v11.3286c0.9549125 1.9206875 1.8357625 0 1.8357625 0a52.196287500000004 52.196287500000004 0 0 0 3.6656000000000004 -18.3517L23.956750000000003 51.432950000000005a12.849350000000001 12.849350000000001 0 0 0 -8.848 12.210437500000001Z" fill="#b0d9ff" stroke-width="1.25"></path><path d="M40.79955 63.6433875a12.851325 12.851325 0 0 0 -8.8391125 -12.207475l-1.558275 10.36875A48.9158125 48.9158125 0 0 0 31.995 73.76625a1.7686125 1.7686125 0 0 0 0.5460875000000001 0.88875l2.5951500000000003 2.2712499999999998a1.2156125000000002 1.2156125000000002 0 0 0 1.6046875 0.0069125 12.0001 12.0001 0 0 0 4.0576375 -9.006987500000001v-4.283775Z" fill="#b0d9ff" stroke-width="1.25"></path><path d="M40.79955 63.6433875a12.851325 12.851325 0 0 0 -8.8391125 -12.207475l-1.558275 10.36875A48.9158125 48.9158125 0 0 0 31.995 73.76625a1.7686125 1.7686125 0 0 0 0.5460875000000001 0.88875l2.5951500000000003 2.2712499999999998a1.2156125000000002 1.2156125000000002 0 0 0 1.6046875 0.0069125 12.0001 12.0001 0 0 0 4.0576375 -9.006987500000001v-4.283775Z" fill="none" stroke="#9b9912" stroke-linecap="round" stroke-linejoin="round" stroke-width="1.25"></path><path d="m20.0018125 60.5851 0 8.245625" fill="none" stroke="#9b9912" stroke-linecap="round" stroke-linejoin="round" stroke-width="1.25"></path><path d="M15.10875 63.6433875c0 1.2235125000000002 0.14615 2.450975 -1.222525 2.715625 -1.00725 0.2518125 -1.4032375000000001 -0.39006250000000003 -1.9088375000000002 -1.198825L7.16925 67.77805c3.9786375 6.726850000000001 10.9148375 3.8384125 12.8375 1.052675v11.3286c0.9549125 1.9206875 1.8357625 0 1.8357625 0a52.196287500000004 52.196287500000004 0 0 0 3.6656000000000004 -18.3517L23.956750000000003 51.432950000000005a12.849350000000001 12.849350000000001 0 0 0 -8.848 12.210437500000001Z" fill="none" stroke="#9b9912" stroke-linecap="round" stroke-linejoin="round" stroke-width="1.25"></path><path d="M28.205962500000002 32.68625a7.3400875 7.3400875 0 0 0 -7.341075000000001 7.3400875v0.9796a1.4980375 1.4980375 0 0 0 0.15405000000000002 2.9625000000000004A7.341075000000001 7.341075000000001 0 0 0 35.550000000000004 42.47336250000001v-2.4470250000000004a7.3400875 7.3400875 0 0 0 -7.344037500000001 -7.3400875Z" fill="#ffffff" stroke="#9b9912" stroke-linecap="round" stroke-linejoin="round" stroke-width="1.25"></path><path d="M26.3702 40.94372500000001a0.9173875000000001 0.9173875000000001 0 1 0 1.8347750000000003 0 0.9173875000000001 0.9173875000000001 0 1 0 -1.8347750000000003 0Z" fill="#9b9912" stroke-width="1.25"></path><path d="M31.26425 40.94372500000001a0.9173875000000001 0.9173875000000001 0 1 0 1.8347750000000003 0 0.9173875000000001 0.9173875000000001 0 1 0 -1.8347750000000003 0Z" fill="#9b9912" stroke-width="1.25"></path><path d="M23.9241625 43.39075a0.9173875000000001 0.9173875000000001 0 1 0 1.8347750000000003 0 0.9173875000000001 0.9173875000000001 0 1 0 -1.8347750000000003 0Z" fill="#b0d9ff" stroke-width="1.25"></path><path d="M27.593712500000002 45.5879375a3.3091125000000003 3.3091125000000003 0 0 0 3.6705375000000005 0" fill="none" stroke="#9b9912" stroke-linecap="round" stroke-linejoin="round" stroke-width="1.25"></path><path d="M35.550000000000004 38.802825c1.471375 -0.7356875 0.88875 -4.5533624999999995 -0.44635 -5.1735125l0.9568875 -0.7663000000000001a1.115875 1.115875 0 0 0 -0.7633375 -2.0115375H26.267500000000002a5.8568625 5.8568625 0 0 0 -6.0138750000000005 5.721575v4.4170875c4.416100000000001 0 4.4437500000000005 -3.4730375 8.221925 -4.4170875 0.09875 0.8581375 1.194875 1.6659125000000001 2.9437375 2.2080500000000005a2.1636124999999997 2.1636124999999997 0 0 1 2.2090375 -2.2080500000000005Z" fill="#ffffff" stroke-width="1.25"></path><path d="M35.550000000000004 38.802825c1.471375 -0.7356875 0.88875 -4.5533624999999995 -0.44635 -5.1735125l0.9568875 -0.7663000000000001a1.115875 1.115875 0 0 0 -0.7633375 -2.0115375H26.267500000000002a5.8568625 5.8568625 0 0 0 -6.0138750000000005 5.721575v4.4170875c4.416100000000001 0 4.4437500000000005 -3.4730375 8.221925 -4.4170875 0.09875 0.8581375 1.194875 1.6659125000000001 2.9437375 2.2080500000000005a2.1636124999999997 2.1636124999999997 0 0 1 2.2090375 -2.2080500000000005Z" fill="none" stroke="#9b9912" stroke-linecap="round" stroke-linejoin="round" stroke-width="1.25"></path><path d="M30.4021625 61.80762500000001a47.2706375 47.2706375 0 0 0 0.843325 8.59915l3.3229375000000005 -9.4928375a0.8946750000000001 0.8946750000000001 0 0 0 -0.0227125 -0.6497750000000001L33.263937500000004 57.275000000000006a0.8976375000000001 0.8976375000000001 0 0 1 0.6073125 -1.2245000000000001l0.62015 -0.1550375a0.8976375000000001 0.8976375000000001 0 0 0 0.6675500000000001 -1.0191000000000001l-0.3485875 -2.0935a12.811825 12.811825 0 0 0 -2.8499250000000003 -1.3439875000000001Z" fill="#b0d9ff" stroke-width="1.25"></path><path d="M30.4021625 61.80762500000001a47.2706375 47.2706375 0 0 0 0.843325 8.59915l3.4384750000000004 -9.821675L33.263937500000004 57.275000000000006a0.8976375000000001 0.8976375000000001 0 0 1 0.6073125 -1.2245000000000001l0.62015 -0.1550375a0.8976375000000001 0.8976375000000001 0 0 0 0.6675500000000001 -1.0191000000000001l-0.3485875 -2.0935a12.811825 12.811825 0 0 0 -2.8499250000000003 -1.3439875000000001Z" fill="none" stroke="#9b9912" stroke-linecap="round" stroke-linejoin="round" stroke-width="1.25"></path><path d="m35.907475000000005 60.5851 0 7.4901875c0 2.1616375000000003 -1.716275 5.63665 -3.3575 6.578725" fill="none" stroke="#9b9912" stroke-linecap="round" stroke-linejoin="round" stroke-width="1.25"></path><path d="m21.0979375 52.778912500000004 -0.3476 2.095475a0.8976375000000001 0.8976375000000001 0 0 0 0.6675500000000001 1.0181125l0.6211375 0.1550375A0.8976375000000001 0.8976375000000001 0 0 1 22.6463375 57.275000000000006l-1.2837500000000002 2.992125a0.8996125 0.8996125 0 0 0 -0.021725 0.6497750000000001l3.3101 9.458275a46.651475 46.651475 0 0 0 0.8561625 -8.5645875l-1.550375 -10.3776375a12.776275000000002 12.776275000000002 0 0 0 -2.8588125 1.3459625Z" fill="#b0d9ff" stroke-width="1.25"></path><path d="m21.0979375 52.778912500000004 -0.33575000000000005 2.024375a0.97565 0.97565 0 0 0 0.724825 1.106l0.5520125000000001 0.13825A0.8976375000000001 0.8976375000000001 0 0 1 22.6463375 57.275000000000006L21.23125 60.5851l3.4256375 9.7871125a46.651475 46.651475 0 0 0 0.8561625 -8.5645875L23.956750000000003 51.432950000000005a12.776275000000002 12.776275000000002 0 0 0 -2.8588125 1.3459625Z" fill="none" stroke="#9b9912" stroke-linecap="round" stroke-linejoin="round" stroke-width="1.25"></path><path d="m27.955137500000003 56.3033 0.7139625 -0.6122500000000001a4.354875000000001 4.354875000000001 0 0 1 2.0816500000000002 -1.1109375000000001 1.2333875 1.2333875 0 0 1 1.4861875 1.198825v1.0477375a1.2333875 1.2333875 0 0 1 -1.4861875 1.198825 4.354875000000001 4.354875000000001 0 0 1 -2.0816500000000002 -1.1109375000000001Z" fill="#b0d9ff" stroke="#9b9912" stroke-linecap="round" stroke-linejoin="round" stroke-width="1.25"></path><path d="m27.955137500000003 56.3033 -0.7139625 -0.6122500000000001a4.352900000000001 4.352900000000001 0 0 0 -2.0826375 -1.1109375000000001 1.2324000000000002 1.2324000000000002 0 0 0 -1.4812500000000002 1.198825v1.0477375a1.2324000000000002 1.2324000000000002 0 0 0 1.4812500000000002 1.198825 4.352900000000001 4.352900000000001 0 0 0 2.0826375 -1.1109375000000001Z" fill="#b0d9ff" stroke="#9b9912" stroke-linecap="round" stroke-linejoin="round" stroke-width="1.25"></path><path d="M26.731625 56.3033a1.2235125000000002 1.2235125000000002 0 1 0 2.4470250000000004 0 1.2235125000000002 1.2235125000000002 0 1 0 -2.4470250000000004 0Z" fill="#b0d9ff" stroke="#9b9912" stroke-linecap="round" stroke-linejoin="round" stroke-width="1.25"></path><path d="M10.8625 69.8863625a1.7775 1.7775 0 0 1 -1.7775 -1.7775l-0.0365375 -4.884175a2.1448500000000004 2.1448500000000004 0 0 1 0.6290375 -1.514825l0.325875 -0.32488750000000005a3.5895625 3.5895625 0 0 1 -3.6804125 0l0.32291250000000005 0.32291250000000005a2.1409000000000002 2.1409000000000002 0 0 1 0.62805 1.5158125l0.0365375 4.884175a1.7775 1.7775 0 0 1 -1.7775 1.7775 0.88875 0.88875 0 1 0 0 1.7775H10.8625a0.88875 0.88875 0 1 0 0 -1.7775Z" fill="#b0d9ff" stroke="#9b9912" stroke-linecap="round" stroke-linejoin="round" stroke-width="1.25"></path><path d="m11.732487500000001 57.9218125 -0.811725 -7.5770875a0.9875 0.9875 0 0 0 -0.9825625 -0.8828250000000001H6.388137500000001a0.9875 0.9875 0 0 0 -0.9875 0.8828250000000001l-0.811725 7.5770875a3.5895625 3.5895625 0 1 0 7.138637500000001 0Z" fill="#b0d9ff" stroke-width="1.25"></path><path d="M4.593850000000001 57.9218125a3.5895625 3.5895625 0 1 0 7.138637500000001 0l-0.28835 -2.6879750000000002H4.8822Z" fill="#ffffff" stroke-width="1.25"></path><path d="M4.593850000000001 57.9218125a3.5895625 3.5895625 0 1 0 7.138637500000001 0l-0.28835 -2.6879750000000002H4.8822Z" fill="none" stroke="#9b9912" stroke-linecap="round" stroke-linejoin="round" stroke-width="1.25"></path><path d="m11.732487500000001 57.9218125 -0.811725 -7.5770875a0.9875 0.9875 0 0 0 -0.9825625 -0.8828250000000001H6.388137500000001a0.9875 0.9875 0 0 0 -0.9875 0.8828250000000001l-0.811725 7.5770875a3.5895625 3.5895625 0 1 0 7.138637500000001 0Z" fill="none" stroke="#9b9912" stroke-linecap="round" stroke-linejoin="round" stroke-width="1.25"></path><path d="M8.202174999999999 67.2141875a2.8124 2.8124 0 0 0 3.525375 -2.3393875000000004 2.94275 2.94275 0 0 0 -2.2327375000000003 -3.138275l-0.7060625 -0.19058750000000002a1.87625 1.87625 0 0 0 -2.289025 1.2837500000000002l-0.5302875 1.7972500000000002a1.87625 1.87625 0 0 0 1.3074500000000002 2.3403750000000003Z" fill="#ffffff" stroke-width="1.25"></path><path d="M8.202174999999999 67.2141875a2.8124 2.8124 0 0 0 3.525375 -2.3393875000000004 2.94275 2.94275 0 0 0 -2.2327375000000003 -3.138275l-0.7060625 -0.19058750000000002a1.87625 1.87625 0 0 0 -2.289025 1.2837500000000002l-0.5302875 1.7972500000000002a1.87625 1.87625 0 0 0 1.3074500000000002 2.3403750000000003Z" fill="none" stroke="#9b9912" stroke-linecap="round" stroke-linejoin="round" stroke-width="1.25"></path></svg>